<mxfile host="app.diagrams.net" modified="2023-03-28T15:29:27.934Z" agent="Mozilla/5.0 (Windows NT 10.0; Win64; x64) AppleWebKit/537.36 (KHTML, like Gecko) Chrome/111.0.0.0 Safari/537.36" etag="5tjoeFuskC0l4Ej05JuC" version="21.1.1" type="github">
  <diagram name="第 1 页" id="m0QdqJkaWh8irYXBRxe7">
    <mxGraphModel dx="1434" dy="1957" grid="1" gridSize="10" guides="1" tooltips="1" connect="1" arrows="1" fold="1" page="1" pageScale="1" pageWidth="827" pageHeight="1169" math="0" shadow="0">
      <root>
        <mxCell id="0" />
        <mxCell id="1" parent="0" />
        <mxCell id="lpsMPSB3YRS6aLVJ9S5I-1" value="" style="shape=image;verticalLabelPosition=bottom;labelBackgroundColor=default;verticalAlign=top;aspect=fixed;imageAspect=0;image=data:image/png,iVBORw0KGgoAAAANSUhEUgAAA2EAAAHfCAYAAADZU9ATAAAAAXNSR0IArs4c6QAAAARnQU1BAACxjwv8YQUAAAAJcEhZcwAAFxEAABcRAcom8z8AANJWSURBVHhe7L0HmBTVtr99/t+999x78jkec06Yc87HjFlRUEAECaKCiooKCihIzig55yBJco6Sc845Ss5ZcH397qmCZugamKEZqnt+L89+hq7eXXFX93pr7dr1BxNCCCGEEEIIkWlIwoQQQgghhBAiE5GECSGEEEIIIUQmIgkTQgghhBBCiExEEiaEEEIIIYQQmYgkTAghhBBCCCEyEUmYEEIIIYQQQmQikjAhhBBCCCGEyEQkYUIIIYQQQgiRiUjChBBCCCGEECITkYQJIYQQQgghRCYiCRNCCCGEEEKITEQSJoQQQgghhBCZiCRMCCGEEEIIITKRsyJhhw8ftn4DBttXZb6zXHnftedeyWnPv5pLJaTlncIfWOXqtWzBwsXeERRCCCGEEGkxc+Ycq1i1puUr9L6LpxTvhqv4xyPPu+9ZpWq1bMbM2d6RyxwyXcIQsDLlK9nVN99p1912j9145wMqIS833fWAXXXjHXbfY0/byNFjvCOZuezZu9e2bdtum7dsUVFRUVFRUVFJV9mydavt3LXLfvvtNy+yOLN069nbbr77Qbv2lrtdHBUrvlIJR7nprgctW+Q43Xz3Q5Hj1suOHDniHcUzS6ZL2NARI+3Wex+2Ox541LpGGuj6XzfY3kiArRLesmz5CqtW6wcnYq/mett9iWUWO3bstC7delruAkXstnsfscuy3RIpt6qoqKioqKionGK5xa69+S57+oXX7NuK1WzR4qVelHFm+HXDRsuTv7BdcMX1VqtuA1u+cmXM+EolHGXNunVWv3Ezu/y6W+2pSBtZumyFdyTPLJkuYZWr17YLrrzeWrfv5E0RiULB9z92V3MmTZ3mTTmz7D9wwMpWqGz/uugqu/OB/zgBzB35UlNRUVFRUVFRSW956fXcdsk1N9kzL+ZwF5jPFGMnTLRrItL30WdfRYL8fd5UEWYO/fablSpXwf7870ts+MhfvKlnlkyXsC++LueC6pmz5nhTRKJQ+4eGdus9D1vXnr28KWeWqdNn2IOPZ7f7HnvGBg8bYfv3H/DeEUIIIYRIHzt27rTvq1S386+4zmrVa+BNjT+9+w6w//3HBdasVVtvikgEWrbpYP/3r4usZ6++3pQzS6ZL2CdflLZ/XHjFGb0CIc4MzVu3c11J23bs4k05s9AN8cIrb7CGTVt6U4QQQgghMs7S5cvdfVoF3//IDhw4Mxd3uR/sD//7D+vcrYc3RSQCHTp3tX9eeKWLPzODTJewEl9+7SRsydJl3hSRKDRt2cZJWLtOP3lTziz1Gze3//n7+TZ0xChvihBCCCFExln/66/21Auv2ht5CtiGDRu9qfGl+8997A//90/r+FM3b4pIBNpH4tt/XHCF/dT9Z2/KmUUSJk6ZzJawuvUb2//78zn2y9jx3hQhhBBCiIzDgHAMTf7am/ls7br13tT4IglLTCRhIrRktoTVa9DE/r+//NtG/TLWmyKEEEIIkXGQsOwvv2E53nrH1q3/1ZsaXyRhiYkkTIQWSZgQQgghEhlJmAhCEiZCiyRMCCGEEImMJEwEIQkToUUSJoQQQohERhImgpCEidAiCRNCCCFEIiMJE0FIwkRokYQJIYQQIpGRhIkgJGEitEjChBBCCJHISMJEEJIwEVokYUIIIYRIZCRhIghJmAgtkjAhhBBCJDKSMBGEJEyEFkmYEEIIIRIZSZgIQhImQoskTAghhBCJjCRMBCEJE6FFEiaEEEKIREYSJoKQhInQIgkTQgghRCIjCRNBSMJEaJGECSGEECKRkYSJICRhIrRIwoQQQgiRyEjCRBCSMBFaJGFCCCGESGQkYSIISZgILZIwIYQQQiQykjARhCRMhBZJ2Omxb99+27R5i/vSX7N2nSubt2yxI0eOuPd///13275jh61Zs9bWrlt/QqE+n2U+PgcOHDg6vxM/k7KMbdu2e7XNLWvL1q22Oo1l8AN18OBB7xNme/fui7yXMq9Y9fm7Y+dOr7bZ4cOHbeOmTWkuY8PGTa6ez65du9Osz989e/Z4tc0O/fabW89Y6+SvK/uafeqzffuONJexLvJ3//4DXu2Ufeu/l7q+v4yt27Z5tVOO3+bIMtPet7/aoUO/eZ9g3+716sfet5SdO3d5tVOO34YNGwPWKeUzvH/kyLHt3rlrV+A6+dvBevj8Ftm3wW2KZax1+zYa9kNa202JblPs25T5x14G89q2/Vi7hY2bNqe5DNY5uk3t2ePv2xPrU1atWWO7d+/2aqfsW45P0Havjmw37TYazte09i3v7d9/7Hw9eOjQ0f0R6zPU37L1WJsCviPS2m7+csx89u7b59WPvYxVkfei2xTt9teTtCnejz6X+Hxay+A91sMnpU0dW99Y9dnOaNgPQcvw53Pw4CGvtrn9zPS0lrFjx7HvKdgYOZ5B9ZnOd8zhwynfz7Ar0l5Ott3R31O0xzTbVKT+pki7jt63tPuU+id+hukUzh+ftL+nUpaR+lzi/PWXwTZGf49lBSRhIghJmAgtkrCMM3PWHCvxxdd236NP2WXZbrHzLrvW/nXRVZbr7YJHfwAJIkqVLW9/OfcSO/+K604o/4zUz3brPdZ3wGBXH0aO+sWuveVuN6/U9c+7PJv9+5JrrFiJL46KHkFj/sIf2J/OueiE+hTmc/v9j9rU6TNdffipW083r3MvvfaE+v++JGVahco1vNrmftSefvE1+8u/Y2/Hvy6+2h59+kUXAPjUa9A4cLvPiWzDhVfdYC3bdvBqm81fuMi1Rb4sU9dnXVnGa2/mswNe4E+Q83npsvbHf15wQn0K++nybLfasBGjXH34Zew4uyiyXN5LXd8tI7KvPvj4M692SjD0Rt4C9qd/xd63zOe62+61BQsXe5+I7NvIF/1fz73UzS91ffb338+/wirXrOPVTgnQHvjPM/a38y4/oT6Fdbr/saePC7Jr1P7B/vvv58esz3L/dv7l1qVbD6+22ZJly+yK62+zcyL7MNZn/nbepfZKzjxe7RSKFv/U/ucfsZfBdpxzydU2eco0r7bZmHET3HJjbTeFeX38eWmvdgpPv5Qj0qYujlmf433lDbdHJGmjV9usTYdOke0+L2Z9yn/97Vxr2LSFVztF0m+4/T53nsWq/9fIdj/y5PN2JCpg5nwN2m627c+R9R06fKRXO/I9MHuO2x+xziXKH/9xgb37XjGvdgpv5MkfuN2cGxdfc9Nxv6cEf9QP2rf/9bfzrGqtel7tFGm75+En7Z8XXhmzPsfp3keetD1Rol65em33HRK0DM4B1sNn0eIldvl1t8Q8lyj/968LLWfed73aKRQsWtx9J8Rahv+9M33mLK+22aChw137P/fS2OtEWyjzXUWvdooYPp79lUg8Enu7+W7hOwZR8/mxUdPA85Xyf/+80Fq36+jVNidAtCmOU6z6fz7nYnvhtTftUETOfT75orQ7v2Mtw51LF19jo8eM82qnnEsXXnVjYJtKOZdKebVT4Pxlu1nG1Tffac+89Lo1bdX2uIsSyYwkTAQhCROhRRKWMRYvWWoPPp7dLr32Zns5Z157NxJcFP7gYysQCbZq12tou70rp1zV7dC5q71dsKh7P3Wh/seff3WcIM2ZN98+ikzjvdT1C0VKwaIfWfPW7Y5eaSWQqt+omeV9970T6lOYzxdfl7NlK1a4+jBuwqSUeb3/0Qn1mT9/u/Xo5dUmK7Ldvq9SPXg7Ittf7vsqtnXrVu8TZv0GDg6sTzBWpFgJGxERTp+1a9fb56XKOKFMXZ91ZR9Xr/Ojy5gB29+2Q2fLXaDwCfUpLOODjz+32XPmufowf+FCey+yXN5LXZ9lsK+aRc4JH5ZV64cGlrdA7H3LfD4uWcpdnfYZP2Gy5YtsN/M7oX5kf78T2b4evft6tc21la+//d7yFTpxuymsE+9HZ0t79elvb70Te7tZLsvgGPv8umGDffBJyaPtNHXJV+h9qxYVxEOTFq0td/6AfRvZDuYV/Z0/PyKi+SLLjbXdFOYVLd3wfdUaabapD0t8YTt27PBqm438ZUxkuwvFrE95M19BF7j7kDkrEQmAY51LFLa7bPnKx2UtOF+DtpttyxtZ31lz5nq1zVasWuX2R6xzicK8GjRp7tVOoVa9+oHbzX5FgDlmPhMmT3X1g/btm/kK2c99+nm1zV2o+KpMeStQ5MOY9WkfyOb+qOxLj0iASTsPWgbvsR4+6yOBLudXrHOJkqdAEXfuRNOwSYvA7fC/d1asWOXVNpsxa447dgXfP7E+hbbQKSogJkv1XaVqlj9gu/lu4TsmOns2cPBQ1w4KxqhPYTuiv6c2b9nq2lTQuZT33aIRoa1zXCazVaTdc37H3G7vXJq3YKFX29xFHb4f02pTqc8lzl+ON8soUKSY3f/YM06QmR7dGyBZkYSJICRhIrRIwjJG+crV7aob77BvI+KRuquREEIIcTaZNGWaPf3Ca3bNzXfZ/CjBS1YkYSIISZgILZKwjPF65Iv+zgceO2Nf9kIIIcTpULNufdcddsCQod6U5EUSJoKQhInQIgnLGP959iW75+EnjhuQQQghhAgLdAl/6fXcNnDIsS66yYokTAQhCROhRRKWMe7/zzN2+32PHDfKlhBCCBEWGNWRERMZqTbZkYSJICRhIrRIwjLG86/mssezv2S//XZs+GwhziaMxOmPmOkTPZT6yWAggegh532YTjDnDxXvv44e/S011PXLli1bbNOmTbZ582ZXNm7cGHPENgbHYH395QghxKkiCRNBSMJEaJGEZQyeoZX6+TRCnC3WrFljBQsWtNq1a9vixYtt3bp1NnHiRHv77betc+fOtnz5cluyZIkbaZCydOlSV5jOa8Tnxx9/tA8++MBmzpxpK1assO3ec4jmzp1r77zzjvs8TJ8+3T788EObPHmye52aDRs22Ndff23t27d3n/noo48sd+7cbh6UN954w72XWhh37dplFStWtAoVKtiCBQts4cKF7i/bw3unAsK3cuVKJ5N8Zu3atW7frF692n799dgzxxBJXjOd9ynbvMdK8Hw19p8/nf/7z3BCJletWiVRFAkBFzZoq9GjfyYrkjARhCRMhBZJmBCJDYLQrFkze+655+zBBx90klOmTBknYM8//7w9++yz9swzz9jHH39sv/zyizVq1Mj+85//2Kuvvuo+U7NmTevfv7/7XIECBZzM3XfffVa/fn0nKS1btrTHHnvsqMyxrBw5cljz5s2d6CE9BHmIDfN///33LVeuXG45O3fudOtHhssv+/bti5lFo26pUqXs0UcftcKFC7vy7rvvWvHixW3q1GNDowexbNky95nSpUu7bFurVq3s3nvvtWzZstnVV19t999/v7Vr184tH7F6/fXX7brrrrNrr73WrrrqKvvmm2/cfPr162ePP/64+xzv3XbbbU5ukdVu3bq5zw0efOy5fkKElRmzZluteg1sxszZ3pTkRRImgpCEidAiCRMisRk9erTVrVvX5s2bZyVLlrRhw4a5DE6TJk2cOPz8888uM+XTsGFDq1q1qnXv3t1++OEHK1SokN1999320ksvOTmZNGmSEzRkZMiQIe79e+65x827V69eToqQuPz589uLL77opiM2dFFkPZA2JCj6mXGnyrfffmsNGhz/bKlTgawX2/jJJ58czZohkY888ogVKVLEPv/8cyejyOXw4cNt/fr19vLLLzs5/fTTT61EiRLWpUsX9zm2ke3Lmzev+xzSdfvttzupg44dO7p9QiZRiDDTul0nu/DK661V207elORFEiaCkISJ0CIJyxiczB27dLMjR5K/m4cIN2Rn6MJXp04dJ1JkoVq0aOFe08UQkUA+EK85c+a4DBayRParcePG9t5777nMWfny5Z2MIFffffedkyqYMWOGExEEDZgHXQzppkhmic/6Xfl8WNZnn33mhAYZRIj427ZtW5ch69Spk+s6SJfHrl27uvUgI0dmjowcIkY9hIcM18lAFpGq8ePHe1NSJOzNN988ut6sCzKFJJK9e+2115yQpgY5ZT/63S3pfvnAAw9Y2bJl3Wu6MebMmdOtc1bo5iUSl3Ydu9hl2W6xth1SLjAkM5IwEYQkTIQWSVjGYJ/xEEwNzCHONkgGskKmBqHp0KGDvfDCC05mmMZ7TOcvAoV4kMGi6yFy1bRpU5cxq1WrluuWd8kll1iVKlWODtLBZ8gYIWjcs0UmjHvHuG+M+dONz79/DMi8sXwkiGwaMkXG7YsvvnAySHdF1gUJ4/4zfxrrxfyQJD5brlw5u+uuu5zopQVdG6tVq+a6UTJPn1gSRkbvp59+ctPoUolMIX90Nxw3bpyr17NnTydhU6ZMca+RsIcfftgtA+niXjYkk/3AQCNChBUk7PLrbpWExQlJWGIiCROhRRKWMR59+gX3nDBJmAgDCAPiRHc+5AXJeuWVV9xrslrff/+9y3xxkz5ZJgSMe6eQKTJn3D+GxAwdOtQGDRrksmNIB/8vVqyYk6GiRYs6UeO+M+61YnANMm0sw8+asQy/ayPZpmjInNHFj/vGfLjXK3v27K5LZWoQKrJbLCctGGmRroiVK1c+LjOF1NGtkPVGAJ966im3XnQjpLskEnbFFVfY+eefbxdddJFVr17dfa5379725JNPukFE+BwZM+6Ji15Hso/sr9TbKESYkITFF0lYYiIJE6FFEpYxJGEiTNC9EJliwAhkAUFAsMaMGWNjx451WSwG5qDbIANrkJkaMGCAy4IhbYgKg3jQhZB7pJ5++mk3TySD7BT3U9EtkawT82KgCwSHDNmXX35pI0eOtGnTpjkp434pujTOnn38YAAM4vHWW2/ZwIEDvSkpWTa6ICJErC/yR1aM/yNsLIPMWloggGwDGa1oyMAhhAyucfnllzvZI9uFqDHgCJLK/WKIIILoZ7XImDE4yDXXXGNXXnmly9SxDtGDiVCHdZWEiTAjCYsvkrDERBImQoskLGNIwkSY8Lv7+TBABZkufxh47g9j5EG6HXJvFvdxIWB0L0RWEC4yaXQx5F4oJI5ujTBr1iwnSYyMSMaNQTvoMsi9WmSfmC/3R3GvGSMc0t0vX7587nPRMOAHEob8+TByIkPQI2zMe/78+U7mECOGqGeI++iujrFgUBC2BxmMfs4Z3RGRKTJbyBLDy/vwmiwb98uRSSNDiGSxvxCshx56yO0nhqNnEI/U935xzx2yyQAoQoQVSVh8kYQlJpIwEVokYRlDEibCBKLBwBoIDILAQBJkkRhMggwZwsHgFVCjRg33PkJEJovuhHQzrFSpkhMrX8LatGnj6iNIZI1YBlkyuun5WSPun/rqq6+c8DCgBfCXLFZqCWPduAcrOhNG90W6SzKN+SBe3C/G/3neGNuC4KX1XC4EiQE/eBYZg2b4kBkjE4b8pQbZJLtHRo86N954oxNH7hVDwm699VZ3H10sEDWkj/2VnodhC5HZtGnfyS666gY3SmKyIwkTQUjCRGiRhGUMSZgIC2Rj6IJI5orh4umCSNdDRIZugoxkyH1g3ItF3R49ejih8p/rxdDs3DPGPVM8ZwsZ4ZlaiA3DzCNCyBrz5i+f96GLIl36WAb/B+7hQtoY0AIQqxEjRrisGwNlkO3ypzN4CCM70h0Q8eP/o0aNcp9v3bq11atXz93fFkukoiGbhhzyGR9kkP3AvFOD4DGgCNvK/XEIKTKIXE6YMME9jJp9FwsygtRHIIUIM51+6m433HG/deyScoEkmZGEiSAkYSK0SMIyhiRMhAUEjK6HPB/MByGLzuSQaaIOghEL7iVjEA7Yu3evkxlkDlEim0ZWDHHh/jL/OVxAFor7pajvdwVkmHjuDeO+K6B7It0jKQic30WSjBujEvqjF/IeWS+6H9K1kcEvyGwxwAYSdzJYDvKGPPnLiDdsE3JL1jH1sPxChI3FS5c6EVu8JPmfaScJE0FIwkRokYRlDPbZtRqiXojQwL1hZO+QwrS6L54OPBCbe+gWLVrkTRFChAFJmAhCEiZCiyQsY3Tr2cs6d+Wqvh7WKoQQQpxNJGEiCEmYCC2SMCGEECL52Lhpk02ZNt39TXYkYSIISZgILZIwIYQQIvlAGu5/7Bnr3rOPNyV5kYSJICRhIrRIwjLG9h07bPv2Hd4rIYQQIly0btfRzr/8OmvVtqM3JXmRhIkgJGEitEjCMsZzr+S0/zz7kgbmEEIIEUr0sOb4IglLTCRhIrRIwjLGA48/a7ff96gkTAghRCiRhMUXSVhiIgkToUUSljH0nDAhhBBhRhIWXyRhiYkkTIQWSVjGkIQJIYQIM5Kw+CIJS0wkYSK0SMIyhiRMCCFEmEHCLst2iyQsTkjCEhNJmAgtkrCMIQkTQggRZtq072QXXXWDtW7XyZuSvEjCRBCSMBFaJGEZ40xI2Jw586xitVqWt8B79vyrudwIjPxVSY7C8XzhtTctf+EPrXL12jZn3nzvyJ+cgwcPWq++A+zTyHdtjjfzWXa1jdCV7K+8Ya/mymvFSnxhzVu3t23bt3tHL222bN1mLdu0t/eKf2ovv5FHx1blaKFNIRUflyxt7bt0s71793qt5tQYMXqMFfmwhI0YNcabkrxIwkQQkjARWiRhGQMBu+muB+IiYb///rv91ONnu/HOB+yam++yG++43/1fJfnKTd7fq2+602679xEbMnyEO/5pcejQb/b+R5+7z1x3272Rz6t9hLPc747vDZHz98ob7rDXc+e3zZu3eEcxNitXrbZnI4Hj1TfdFfncfTHmqZK1S8q5znl/5Y13WMH3i9u+ffu81nNyDh06ZLt373F/kx1JmAhCEiZCiyQsYxR4r5jlzl/YDh8+4k3JOKvXrI38cOSzi6+5yWr90MCWLl/hrniqJF/Zs2evLVqy1L6rVM0uuOJ6y1PgPduwYaPXEmLTs3c/y3br3fbYMy/ZwKHDbOOmzTHnrXL2C9mvsRMm2muR8/mSyPnM910Qhw8ftmq1f7ALrrze3in8gU2eOs22b98Zc74qWbds2bLVho4cZU+98GpE7m+3dh0z57c60ZCEiSAkYSK0SMLOPmPHT7SrbrzDPi9dzg4cOOBNFcnMzp077d2IyF923a02Y9Zsb2psSpctH5Gwe2zA4GHeFBF2EKrb7nvEXnvz7cBM5959++ylN3LbI0+/YIuX6LdTpM2Q4SNdxvS94iW8KSfHZcL2KBMWLyRhiYkkTIQWSdjZp0//gfa//7jAWrbt4E0RWYGK1Wran8652CZMmuJNiU2eAkVcN1WCDJEY7Nu33x58PLs9/GR2O3IkdrZ8585ddvNdD9qraYiaED4bNm2y6269x0nGqcIFvs++KuP+JjuSMBGEJEyEFknY2adHr5Qv9s7duntTRFagVr0G9l9/PdfGTZjkTYnNa2/mc/eD7dy1y5siEoGHn3ze7nn4SdftMBbbd+xwGfCceQt4U4QIhq6J1992r72Y4y1vysnhwt6/L7nGWrRJ/gt8kjARhCRMhBZJWMaoUedHq1StVuBV7vTQs3df+8Of/qUv9ixGzbr17b//dt5JJYygAgkjaBeJAxJ27yNPpSlhHNc38uT3pggRzO7du52EvfR6bm/KydHDmuOLJCwxkYSJ0CIJyxiMbHftLXfFZXRESVjWRBKW3EjCRDyRhKWNJEwEIQkToUUSljHi+ZwwSVjWRBKW3EjCRDyRhKWNJEwEIQkToUUSljEkYeJ0kYQlN5IwEU8kYWkjCRNBSMJEaJGEZQxJmDhdJGHJjSRMxBNJWNpIwkQQkjARWiRhGUMSJk4XSVhyIwkT8SQjEta6XUf3MPBWbTt6U5IXSZgIQhImQoskLGNIwsTpIglLbiRhIp5kRMK69exld0d+p7r26OVNSV4kYSIISZgILckgYdu3b7f58+fboUOHbPbs2bZ161ZbsGCBLVu2zNatW2fTp0/3asaPR5563u5+6HFJmMgwkrDkRhIm4klGJGzt+vXut3btuvXelORFEiaCkISJ0JIMErZnzx4bOHCgDRs2zDp37mzNmjWzQYMG2Zo1a2zChAnWr18/r2b8QMBuvPN+SZjIMJKw5EYSJuJJRiQsKyEJE0FIwkRoSQYJW7FihRUvXtyyZ89ub7zxhj3++OOWL18+lwFr0aKF5cmTx95//3378MMPbejQod6nTo9JU6bZhEmT7ffff/emZBxJWNZEEpbcSMJEPJGEpY0kTAQhCROhJRkkbN++fTZv3jyrXLmyvfDCC9axY0fXLXHJkiVOwvh/t27drEKFCm5a2JCEZU0kYcmNJEzEk4xI2MpVq63fwMHub7IjCRNBSMJEaEkGCdu7d6/16NHDvv/+e/v000+tSJEiNnr0aOvbt681aNDA1eH+MF7/9ttv7nWYkIRlTSRhyY0kTMSTjEhYp5+62w2332cdu3T3piQvkjARhCRMhJZkkLApU6a4e8Holvjzzz+7QTnIhtWtW9fJGQI2fPhwlw2LFwsXLbb5CxapO6LIMJKw5EYSlhggN1zIi4ZpBw4c8F6Fg4xIWJv2neziq2+01u06eVOSF0mYCEISJkJLMkjYr7/+aiNGjLCSJUta6dKl3aAcM2fOdKMl8rdNmzbWoUMHmzp1qveJ0+eB/zxjt9/3SNIOzLFt2zY3yuT+/fvdCJMEksuXL7cdkcCR14xIGc2RI0ds/fr1rv6WLVvcMejVq5f17t3bFf4/atSoo59HnFODPBNopAbRXbVqle3cudObkhKQLF261B3jIGgXmzZt8l4dg4CLdQXe5z5B1pEurUwfPHjwces9ZswY27Vrl6sP/raeLllFwth3q1cf6w7F/o8+ltFwzCjR0N14/PjxJ7QNstpr1661gwcPelPMtYc5c+Ycd9xpk3y+Z8+e7lhv3LjRe8dcW6VtnQkkYcHQBrhoBrSFkSNHuuPjn3eUGTNmHL3ItWHDhhPaDMeY4x8N30sc09TQLjjOqWWL77kvvvjCSpUq5QZ3orcEvSi+/vpr+/bbb49+NzDA09mWsoxImB7WHF8kYYmJJEyElmSQMIKu3LlzW/78+e2HH35wA3DwI8qPFkF/lSpVrGXLli4YixcEWHc9+J9MlzACOgJKtqdp06auuyVZvmgIWAga/OAUuUFEmzRp4gqjSEYHrpMnT7b69etb48aNbdy4cW4aI0siTRMnTnRZRaYjJ8hHp06d3DJSg7Agbszv448/turVq1vNmjVd4f8MjjJp0iR3j17VqlVtwIABLshp2LChNWrUyJ544gkrVqyYG92S7erTp48LfJAeXkdLNAF427ZtbciQId6UFAjaCLJ9mSK48yE4W7x4sS1cuNBlToF1YF0/+ugjF3T99NNPljdvXtd+vvnmGyf177777nHSyL5gsBfuMWRdKc2bN3eiTwB3ql1ez5aE0YY4rqw3bYg2kXrAGoJZtpnjCQS77du3d/U5Vhzr6KCYgJn3aEfR+xw4Rl26dHHtlGVysYS24LdHMtSMcAqsR/QjJRC41q1bu+OROpPNuU0b2Lx5szclBZZFMO1D4N2uXTt3PN955x0X7PvUqVPHDeoTqz2fLokmYZxrfDdwHP3C+RoN+4nzEDEGziX/u4h2wbGOlhXOB6Zz/kYfV+bDdOC85Hv7yy+/dMeIY03p3r27O59pG4jSBx984M4z7vOlLZUpU8YNxET7YF6cl/R64PsqtVgjW6wD578P3xG01/Lly1vhwoVd4XsJIeM766uvvrKXX37ZfTfw/RnrAlFmIglLG0mYCEISJkJLMkgYVzkRE358+VFFEvwfWwJyRkr87rvv3Ot4cbYe1kxAQlCArNSqVcsJJvJAcOJf/R87dqyr42erkCtEwhciAlQkjEL3TT7PoCaIEoEKGSbmUaBAASe2fJaRJ3lv5cqVLkgpW7asWzbBLcJHEEaAy3Q/aKY+QTZBE6LF/Xq+zBAYE0ixLmwHy6HUrl3bBWSsC8G0LzQsh0FVCN7oZsqyCxYsaE8//bQ7tgRPyCawzDfffNMFbQg59wr6GS1EgsCRbqpA0M/2AuvJ9P79+7vXPgT6ZFRh2rRplitXLnvuuefcutarV89+/PFHtw0PPfSQW6+0snPRnC0JY99zDJFN1ps2wT5CSHwZ4bl71PG3G6Flu2vUqGHVqlVz55rfvsgU8HnmU6lSJTdPLowAATnixfzYr7QPpId5sP/4DPuXY0IbQc5oJ4gSAkBwjSjTVgn2W7VqdfRiCnJO+6WNkFVhubRjf9tog8yfNouwsb60Af+iBRcZaCvMlzYbz4s0kGgSxncl5xTnDPuNwncD+8cXEPYfFyb8TDBywgUJ9j3HlLbAMffFl3bBdM4L/7uFY8sx4hylzaWViUTCOCcLFSpkb7/9thMm5sP3A/NlXd977z23rhxX9jUyxnkeLYMcf9ohkubDhSZ6ULBNzIfvC85nvu9YDttJO5o7d673ibOLJCxtJGEiCEmYCC3JIGEEY3RhQgIIhPkRJbgm8OOqOz/a/KgSaAUFROnlbEkYP8QEl8iAD4Ez20fQQ7DKlWqCHAIPIFBKLRbsM8Tk888/Py4w4Yox+5J9R7bo1Vdftddee81dleaqNkELgTBBDleKESC68RF8ffbZZy5o7tq1qwvGCdQJagi6ERWuXBMg0e0nOqtFtoXPsUyg65p/nBArlsF6FC1a1Aka80O0Cc4IwpE1gnu2kXkgnWS02E/lypVz68pyCeqZHi1hXLlnfsybzBZSyHPl6DJJYFekSBEXqJOR4Uo+ssn6sy8QE/YjwSvbShAYqytUEGdLwhB5pJUuoz4cAwJmLmIQ+CK87A9fpshuEYynBkEig+EfO0B2/O6Hs2bNcgGzH8TTthD81LBOtAHaFO2O9lOxYkUn5pzDtNMSJUq4iw+sI4G8nwnhL8eCTBmfpT1wfPk/xxth4EIB68rxJgtIe2A+/nrxec6fWN1XM0oiShj70j/mwHcDx5d9CmS5aSe+rLOf+R6JBinmnOPci+5ayv85Fr/88otrfwgfn09rny9atMh9d3DOcqEN2WbZfK9wrtHWOO9Sd1WM/g4BMnd8b0V3i/Xh/ObiAt9hfM+Rgad9sW60w3jeS3w6SMLSRhImgpCEidCSDBJGUEXARgDNVW9+uPkxJQggYAa6LBHA89q/z+B0ONsShgREQ3BBAEW3MApXcaMlzM8qUXxpRW78rEBqkDmCEIJfMokEyAga8kMGAZAS//+ABBEgEcRxTIDXBDEE+QRN/EXaCHwQOq6MEwDxf9aNwAlBI4gjsOK48R6BIEEU9REi/iJoBHWsB0E89dl2rnADkhG9ftQjME+dCeMKOdPJzBBQInbsO/YxgZk/P7rk+f9n2WSG3nrrLddlCVH1swNsw6m0sbMpYWQm/H3g47cJxInsRGoJIximXfhtiONA9zEEJhbUI1tBHdoAWS6yJnQdpgso8ksG4pNPPnHd4DimSBPnMMedgJssBMeIY8mxpZ2zTux/AmWyI4gZbZO2hkCzbshD9OMoCPxZBvMi40n7Y73IGJMBQbY5nghjvO4RS0QJ47sF2YmG9kC7YN+TGY2WML5nkdfo7xb2H98bfC4IjkOOHDncuUbbIOtO+6D4x4N1Qfp8SSNTSTvkIgui5F9E4FylLbJ8egTQpnif7yDaGZkyuhpyniL1/B+hZ96sL22B5dEe+A71C9+hTGcdw0BGJKxth8526bU3W5v2Kd2vkxlJmAhCEiZCSzJIGAFYdDYHuPLpB8w+/Iilvn8ko4RNwghQCCDJMiAb0RKGvLz44otOpsgWEugSyBKIx8rc0I2HbBZBLhkDgizklYwEAQvvEbDxPoExgTn7lavGBDK8T6BNAEPQQxaLvwRXfJ7ueqwbV7GRw+eff96tF8ERWUzWkwAt+go7UkZXRj5L9yG6riETBF4ESWwj60SATVaLwOv111+3nDlzuv+TpaPbG9uOpEdLGFkc5kumlPVhX9ENiWDOFwX2A6LGNnAFn4wYXV7Zj8gDwoDEIQUE9hyDkxE2CWM6QkqgS8AdLWHIOl0wOTZ0IyOLxHt+d79YIM9kKJFs9o/fbZXl8h4FOSJDiWzRzigE5dTnwgrd0BA5gmwgsPYzaexjuqbymrbIhQJf5mlf3KNH9ovt4tiz3rQrjin3JSILZJSZDxcGkDaOpX+/0+mSLBKGnJN5Qqoo0RLGPqZLMOcvgk1GGLmhe6J/zFLD9wufQ7jo7kjb4nj48+Y92grnJd8twAUWji/Hm7osnwtCtBHaqn/Rg2NK+6J9sj20UcSRNsK8aQ98ZzGd7x/ain9Pmd8m/cJ6sR0JLWEdu9hl2W5RJixOSMISE0mYCC3JIGFngzBKGPdXEKSmljAyYQTXZHIoBDQEnQTifp1o/EwCskMdBIzXBKjIFiJDhomrztz7QeaKgIrglkCKjBjBNMEcgRJXlfkMwTaBEQETgSnrTKDGvAm6kSM/g8F8uNJNUMVyCdbIOrGNZDhZN4J/3qcuWU7kASEn6CKAIninPtMJuhApJCs6E0Z2BNkjSCNwI5vKvkOokCxEHolAAJk3f5k320zAyXZRh/Vn+1gOGbFTub8obBJG20Jm2RepJYx9SBcy9jfbS0aTY4WEUTcWzIfP0fYIpjnmZNMQcr+9cExpR3T/5Lgi7K+88ooLfgmaEV8/QGZf064IitkGMnB8lv1NcM0xIzMDrCfHnvbHqJ4cD4QLWfNlnPbJOnJMaZPMj7YUL5JFwti/XPTgO8MXJV/CEGa6e/tZYr5P+P7hWPDdEAvaDceAz3Eec97wnQNcwOGcpB3SxhA2jgvrRVaLiwBc3OHCChc8XnrpJZdFQ9z8jBnfF3Sdjd7vHH9ki/WMhjpk1miTXKghg+cXsmXMO5ElbNKUqVbu+yo2aXL8RgYOK5IwEYQkTIQWSVjGuP3+R+26W+8JjYQRCJMJQ2RidUck+IyGYAS5QEhiQRD05JNPuqwPwQlZEAIkIHAlQKfrFxDIsCwEh+CXgJgr1GS1/K5AFLqd8T4wDwJmsg6sG4ETMsS6E3T53RkJ/Ai+uMrOe0gbwkWGhEwXQTvryD1wzJvAjyCR4In7hch+EGCxbwjkCcqjJYx15So+MoDoIZx+oM+VeCSE7Wa/s51+po3tIWNGFzbWhW3lL1JwqoSxOyKihbQglakljGA1Go45A2GQmYgFYkO7JPuF+JN5YN5MJ+jm/xwX/1gD7YDl0BbIKNJ+yK4SmBNE+9kt2o9/PJFj5sk6I9K0E9ov7ZNMB8tGtGg3bBPy7Gd4mQ8BO4LGsYtXphySRcK4qMF3BfsGwYqWMM5hzvtouDhCHdpTLLhIwzmOXNMOaCN8R3HsOdfIgtENmDqcq5xztBGOIxlrlo3wIWh8nuVw7DiuTKOrKp/h2PvQ9rgYwDKiYX5k52kbfKdygYXsOIU2T/tE2MNARiQsKyEJE0FIwkRokYRljDLlK9mX33wbCbBSruCeDqc7MAdXgMlIEIRwxZeAM/XAHL5A+RB8EMCSfSCI9SFYIRhDaPgcwQgZKTISfgBDkES3Lrod+RBoEpAhgQS1BEGpryATWHEVnOCIIJtAmMCOekgh6+8HYATHdJX0r1wzv9RZCgZZSB0gcdWeoJ+/BHvMh8CMAJ7gkvmT4fLXjQCSYJ5l8TmEkGwYgkBgRkYmelhrH+SQ7YzuzklgSGDP8k6FMA3MwXFnWwlIOZaxBuYgc5FaKGgXSJIflAPzIrMFvoTRbgmokSSyHxxXluXfo4k80zWRumTJyJ7ShjnuLJeAnCCabqm0D9on8+D4Rx8DujXSBdIXP2AdOFacD3yOdeb4MT+kguPPMfezaPEiESWM/e4fc2B/cT8YGS9IPTAH+wwxjob2zzEjEx2dEUaWKHyPIEocf+ryPcQxQag4fzgmXAAhm8ZFGtoH56sv66wfxxP4/mAdWE8f2gDfJXzOz0rTFmJJGPA9xBD4dKHm4hXtngsyXLzhQkCs8/9sIAlLG0mYCEISJkJLskgYP1BcCafbEyLAlXC60HBVnUJQQPDmi0mYSI+EEUATGNBdhivJ/tV9glU/6CTIpQ7BMBDsELymxs+GIWJ0E2MfEQT5AxrQTYhndz3yyCMuECPYRYSojwiSBYkOUBArxIf9TXBNYMP/WT7HgsCGq+QEewTjHAs+w7EiGPPvBSEgZjkE/r5kIYQEZ9EQPFE3GoIutoVtYx1YPvsISfXv9UGW/Kvm/EVokVLqImGIJ+tJZot7w/xh2n3oisk8oyUUaHdckQ8KulNztiQM4UFwyCDShjg2HEv2kd+GCIKpQ1YJEF7eT71tXAAgq4aI0X6YFwGyP6w3AsTx99si82Uf0T4Jsv1uaFwIIEhGwLhgwHxZPu2c9s16ELjTvvwMHucCx88/pxF82q/fllNni4HvCAJ+2gL1/TaB5NH9LZ4kooTR5nlEAO2CwjkbnVXiuwVR4TwD9j/vp4bvENoEx45jQRvg2Pj3D3KRg/ONzBP3m/n7nmOPICNOfGf5WTleU9e/R4zujKwDAk2biobXfPf493ORPaekljC/azXtkW2leyztl+Vy0YaROvmuY93JqgZ1r8wsMiJhrPOvGzae9XXPDCRhIghJmAgtySJh/KASdBNU8UNOYMiPKwEhhR96ggc/qAwT6ZEwgiHkBInhJnW6y9A9KxqyEIiCn5HhyjEBbCwIEAlqkTGCFrJowL4kSOY9JAXZQTzIoBCI+XUIXvwsCVfRufpN8MvyGcSC+3JYT+bNCIcEZyyDIfUJhpmfH0RxvBA/RjajOyEZDYIolkGXRI4dQROBHVfjCRi5L4T/Mz+yWgTvSBMywWcRB7IiyB3vEWQxL8SPzAwBF8Ed7YVt4DMsm8+RKULK2DdkArgPjG2hPflX5QnqmEawRiGbc6qcLQnjmHOMWG8Kxyi1zBIUk0XkvAIyDbQDsguxYL9xjGkz0d3ZkB7aTXS2FTjGLJu2GT1PgnPaM8eG9sC5TNdWjj0BPyMh+uvKMSawp20TYHMuIOtINsE5n2edEHqknOVx7Dl+HH8GkuG4I3pkdmmftHeEPB4kmoQhOsgG7cEvqdsz3y1c/ECAgeOENMXCFymOAd+/0bLE9wDTOafozsp3COcP5zzHDxA2jjttgItAXBBBEDn/+T/diCm85jj6mXK+Q8hi8b3hz4v2x3dm9EUjpJM2hWRx/xfz4lxnXVk3pIyu2Pyf9p2IEjZk2AjLU6CI+5vsSMJEEJIwEVqSQcL48eVHlPtzCMgRATI1BOYEcPxAc1Wdq6P+FfowkR4JywwIGhGl1JknAqLU3XnIJhBE+V3/CIgJvsiaRXdRA4Ierkjzl4CMACx6fgTgZEzosoSgIXIEzwSG/J+MB0EhgRNdmOiGRNDM/5mGWEQH0ARg0V3VCNoJ4BEq/z3mjyiQkWP5XF1HvKIDS4JBto0ADkHw5RaoT4CGDJAtin7vZJwtCctMCFwJuP0MRjS0HfZ9NBxj9ikBJ59jv3PMaRNkq5A3Xww51mTaaE9cEIjuRgccC443x5VjzXGisFzEm2NG20Hs/WOIYARJU3pJNAnLTDi+0ULEdw3C5ncf9kHQOf4cG851jhXfDZyj/vnPay7AcJyBiy2p2xXtj+8alhsNMsnFFzJffhdaH//ew7CQEQlr2aaDnXPJ1dai9fFdRpMRSZgIQhImQksySBg/uvwgcxWTK+D8oPKjTFDOjzdDq9MVkW5K8ZKwj0uWsvc/+jQSYGXuPWEiecgKEpaVkYSFH8QG8fYFzodussh+6gzu2SQjEqaHNccXSVhiIgkToSVZuiNyxZ2r4WRfuPrNlVW6JpK9oRsKP6ZkNPyr6KfLnQ/+x264/T7L7NERRfIgCUtuJGEinkjC0kYSJoKQhInQkgwShmBxNZP7PciGccN3kSJF3FDi3N/z8ssvuwfuMhABXVf8wQBOh7P1nDCRPEjCkhtJmIgnkrC0kYSJICRhIrQkg4RxfwcPeOUeMAYU4KZ77h3hPiJuzkfOuK+IrBj3K8UDSZg4XSRhyY0kTMQTSVjaSMJEEJIwEVqSpTsiN/PTHZH7w/z7wMiEMboVA3Lwf0bYol48kISJ00USltxIwkQ8kYSljSRMBCEJE6ElWSSM0e4YUpyBN+hySLdERleLhsxYvB68KQkTp4skLLmRhIl4khEJa92uo11wxXXWqm1Hb0ryIgkTQUjCRGhJFgmjGyIP2eXBoXRFJBvGsPU8d4YMGJkxngvEkOTxQBImThdJWHIjCRPxJCMS1rvfAHvqhdesd9/jnyWZjEjCRBCSMBFakkHCeDjvJ598YpUrV3YPGOU1z4/hQcBkxXjYJ/eGMUQ9IyTGg4eeyG53PvCYJExkGElYciMJE/EkIxK2bft2W7Bwsfub7EjCRBCSMBFakkHCGHZ+woQJrvsh94TxEFdGTPztt9+8GinwYE6GrY8H/3n2Jbvv0ackYSLDSMKSG0mYiCcZkbCshCRMBCEJE6ElWbojZjZr1623NWvW2u+/exNOA0lY1kQSltxIwkQ8kYSljSRMBCEJE6FFEnb2kYRlTSRhyY0kTMSTjEjYvAULrXnrdu5vsiMJE0FIwkRoSQYJI8hZsGCBG5hjxIgRrowePdrGjh1rI0eOdK+HDRtmkydPdj9kYUMSljWRhCU3kjARTzIiYW07dLZLr73Z2rTv7E1JXiRhIghJmAgtySBhBw8edANxMALi559/7p4NVqhQIcudO7cbIZHXTP/hhx9s3bp13qdOj6EjRtmgIcPt9zj0R5SEZU0kYcmNJEzEE0lY2kjCRBCSMBFakqU7IgNy8KwwnxUrVrgsmM+WLVts9erV3qvT5/b7H7Xrbr0nLgNz9OiV8sXeuVt3b4rICtSq18D+66/nnlTCXnsznwvWd+7a5U0RiQASds/DT6YpYVfdeIflzFvAmyJEMHv37nUS9mKOt7wpJ0cPa44vkrDERBImQkuySBjP/2rUqJF7YDPQPdH//6JFi6xhw4bub7yI53PC+vQbaP/zjwusVbvkf6CmOEalarXs//51oU2YNNmbEpvc7xSxa26+yzZs2OhNEWFn//4D9uAT2d2jLI4cOeJNPZ4dO3fajXc+EJHst+33yD8h0mLT5s12XUTCuChzqkjC4oskLDGRhInQkkwDc9DVsEGDBjZv3jxbunSpuw9s7ty5Ts4WL17s1YoP8ZSw0WPG22WRH8pSZSu44fVF8sPjEgp/8LFdcs1NNn3mLG9qbEqWLmfX3nK36wIrEgOO6e33PWovv5EnsMsymY3sL+e0x5550ZavWOVNFSI2I0aPcRnxQpHvjVNFEhZfJGGJiSRMhJZkGZiD53/xl4wYZcaMGdanTx/3cGYEjPcIeuIlOfGUsGXLV9gLr71pV9xwuzVs2tzWrFvv5quSfOXQb7/ZqtVrrGqtehEBu9leyZnXVq9N+z7Fjl26u0zYMy++biN/GWM7duyMOW+Vs1/4jpk6faa9lb+wXXz1TVaxai3vKJ4IzzH8rlI1u/CqG6xIsRI2e+68yPfY/hPmqZK1y+7de2zM+InuNwKhati0hdeCTo4kLL5IwhITSZgILckgYVOmTLGiRYtavnz5rHDhwlawYEHLlSuXvfLKK/buu+9akSJFLH/+/JYzZ05r3759YPeg9BBPCWN9uIH6mpvujATbd9od9z/m5q2SXOVu7+/tkeN75Y132PW332e9+w04aXvcEwnsC7xXzC7LdovdeOf9dteDjx+dl0p4Csfk7ocet1vuecgNhvDCa7lszUkEe9GSpfbYMy9FAuXb7NZ7Ho58/lg7UVGhLdwVaVN0W70k0qZy5y9i27af+gA9DMhx8dU3Wut2GpgjHkjCEhNJmAgtySBhjI64bds2N/jG1q1bXRk/frx169bNNmzYcHQa73OlOh7EU8KAQPyXseOt+Gdf2XOv5nLzV0mu8shTz7uuZy++/lbkOH9po8eO847+yWFkNJ73k6dAEXvyhVfdvGItQ+XsFY7JE8+9YjnfftcqVqvpHuZ+Kqxes84q16htr72Vzx7P/rKOrcrRQlt48vlX7c13ClutHxrY5s2bvVZzanTo3NVl0dt36upNSV4kYSIISZgILcl0T1g0DMIxZMgQ71X84QcynhImhBBCxJO58xdYk+atbe68Bd6U5EUSJoKQhInQkqwSxuAcAwcOPGMDXdB1iK6DkjAhhBDi7CIJE0FIwkRoSVYJmz17tvXu3fuMSVjTFm2sQZPmcbm/TAghhBAZRxImgpCEidCSrBLGPWKrVq2SJAkhhMiSbNu23eYvXOT+JjuSMBGEJEyElmSVMCGEECIr07vvADewR6/I32RHEiaCkISJ0CIJyxiHDv2mBysLIYQILa3adrBzL7vWWrbp4E1JXiRhIghJmAgtySBhPKh5zZo1rvvh6tWrXfn111/dNP817/E6XkPU58xbwF56/S0NzCGEECKU6GHN8UUSlphIwkRoSQYJ42HN77//vntYc4ECBdwDml944QV766233GsK7/FAZ54fFg/ue/Qpu/WehyRhQgghQokkLL5IwhITSZgILcnYHZEH27Zt29a2bz9zNyPrOWFCCCHCjCQsvkjCEhNJmAgtySBhjIA4Y8YMJ14dOnSwSpUq2aeffmotW7a0n376yTp37mytWrWyiRMn2u+//+596vSQhAkhhAgzkrD4IglLTCRhIrQkg4Tt2LHDatSoYSVKlLBy5crZRx99ZA0bNrQmTZrYhx9+aB9//LGVLFnSatasaTt37vQ+dXpIwoQQQoQZSVh8kYQlJpIwEVqSQcI2b97sMl7r1q1zr6tUqWJly5a1ypUrO/maP3++7dmzxwYPHuzqxgNJmBBCiDDTpn0nu/DK661Vu07elORFEiaCkISJ0JIMErZlyxbr1KmTLViwwLZu3Wr169d33RJ79eplVatWtUmTJtnatWutX79+rm48kIQJIYQIM4OHjbC33ilkg4eO8KYkL5IwEYQkTISWZJMwuiaWKlXKjZD4wQcfWKFChWzy5MkuSxZPCbvvsaft1nseloQJIYQIJfv277dNmzfbvn37vSnJiyRMBCEJE6ElWSSsS5cutnLlSvccsG7dutnChQtt/fr11rFjR5s5c6Zt27bNBg4cGLfuiK/nfsdeeC2XJEwIIYQ4y0jCRBCSMBFakkHCGIqekRCRL+77qlu3ro0dO9bJV506ddzIiH379nVdFOM1bP3BgwftwIGD3ishhBAiXBw+fNgORH6r+JvsSMJEEJIwEVqSQcJ27drlBuHImTOnFStWzIoXL+7++v+n5MqVyypUqOCeISaEEEIkO5OnTrfylau7v8mOJEwEIQkToSUZJAyxmjJlihuUIwi6Kc6dO1cSJoQQIkvQqm1HO++ybNayTUdvSvIiCRNBSMJEaEkGCTsbtGjdzho3b+UeFC2EEEKEDT0nLL5IwhITSZgILZKwjMHIiNfcfGdcB+bYsHGTdezSzSpUqWElS5ezz0uVdX9VVFRUVLJe4Tfgq2++s1p161vfAYNsz9593q/FqSEJiy+SsMREEiZCiyQsY8T7OWEjRv9iz770hl17y1127qXX2t/Ov8z+dl6k8FdFRUVFJeuVyG/A3yPB40VX3WDX336fvf/xZ7YtHYNLScLiiyQsMZGEidAiCcsY8ZQwMmD5C38Q+dG93D6NnEsjRo+xhYsWq6ioqKhk8TJ3/gL7uW9/e/L5V+2CK66zmvXqe78cJ0cSFl8kYYmJJEyEFklYxoinhE2aMs1uuP0+K/xhCduydZs3VQghhEhh5uy5ds3NdznROHiKj0eRhMUXSVhiIgkToUUSljHiKWH9Bw2xP//7EmvSoo03RQghhDjGwUOH7JkXc9h/nn3J1v16apLRpn0nu/DKG6x1u07elORFEiaCkISJ0CIJyxjxlLAevVK+2Dt17e5NEUIIIY5x8OBBezNfIXvsmRdt2fIV3tS06dKth91yz8PWuWsPb0ryIgkTQUjCRGiRhGWMeEpYz9597Q9/+pe+2IUQQsTkwIEDluvtgk7Clq9Y6U1Nm+UrV1nvfgMj9Vd5U5IXSZgIQhImQoskLGPcft+jlu3WuyVhQgghzjgZkbCshCRMBCEJE6FFEpYxBg0dbv0HDrHff//dm5JxJGFCCCHSQhKWNpIwEYQkTIQWSdjZRxImhBAiLTIiYcjI6LHjz5iUhAlJmAhCEiZCiyTs7CMJE0IIkRYZkTCCzjvuf8x+6pY5wefZRBImgpCEidAiCcsYfOHzRR+H3oiSMCGEEGmSEQljaPoLr7zeWrXVEPXxQBKWmEjCRGiRhGWMx7O/bPc/9rQG5hBCCHHGyYiE6WHN8UUSlphIwkRokYRljIeeyG53PvCYJEwIIcQZRxKWNpIwEYQkTIQWSVjG0HPChBBCZBaSsLSRhIkgJGEitEjCMoYkTAghRGYhCUsbSZgIQhImQoskLGNIwoQQQmQWGZWwy7LdIgmLE5KwxEQSJkKLJCxjSMKECCc8QP1UH6JOvUOHDtnBgwfd38OHDx/3Oh4PYxciHmREwtp26GyXXHOTtWnf2ZuSvEjCRBCSMBFaJGEZQxImkpktW7ZYw4YNbcKECbZx40bbunWrzZ8/33788UdbvHixm7Z582YXGFJ4n89s27Ytck78Znv37rX27dvb5MmTbdOmTbZjxw4nNRTeT82cOXNs7ty53qvjGTdunDVp0sQ2bNjgyp49e+ynn36y7t27u/WgbN++3QkTf1nurFmzvE+bHTlyxIYPH26LFi3ypqSAaDVt2tQKFSpk7733nhUpUsTeeecdK1y4sBUtWtRNb9Cgge3fv9/7hBBnj4xI2JhxE+yTL752f5MdSZgIQhImQoskLGPc9eDjdsMd90nCRNKBJPXt29defPFFe/755+3tt992UlK+fHl7+umn3fT8+fO7aVOmTLHOnTtbrly5XF2mjx8/3kaMGOGmITV58+a1nDlzOslChJg3kobcLFmyxGbPnm2dOnWyjh072rx582zVqlUu4ATErly5cvb444/bm2++6eZVpkwZ++CDD+zRRx+1t956y61f9erV3WdGjRrl1oeMFnKGOE6dOtXq1q1rXbt2da8XLFjgpHDfvn1uOssdOXKke59ldenSxb1mPrVq1bJdu3a5dRHibJIRCTt85Ii72HD48BFvSvIiCRNBSMJEaJGEZYzin35pRT78JC4/bpIwERbIJpG9at68uZOpQYMGuewSItOuXTtbunSp9erVy8mRXx+JITPVqFEj916LFi3syy+/dGKEVPXp08dllBAvslLIDvXIfn3xxRdO1F577TUnWQUKFHAZKZZH1ox58/kxY8bYxIkTnbi1bt3arSMZsrFjj32PkJn7+eefbc2aNa7Url3bZbXeffddN3+EjdcIHJ9l/khW8eLFrVSpUvbJJ59Ynjx57OOPP7bSpUvbRx99ZFWrVnWZNyHONhmRsKyEJEwEIQkToUUSdvaRhImwgCQhVGS9evToYWXLlrVq1arZt99+64SkZ8+eVrlyZZeNGjBggOtqSLfAoUOHugwSmagffvjBFi5caFWqVLEHHnjAsmfP7roR+pCBmjlzpuu6CGStkLJJkya518wHSdq5c6dbj7Zt2zrxQowQK/62bNnSrV+JEiWc9CFo1Pn000+diFFv5cpjgSoySdYtGqSQdaWrI9vFPJExBJTXzZo1szp16tju3bu9Twhx9siIhPGZbdt3uL/JjiRMBCEJE6FFEnb2kYSJMEF3PeQEkSG7xX1gZIdKlizppnOvGNN4D9EhW0UWiYwTgoS8IDFIEQJHPUSqd+/eLvuE/PgC5jNs2DBbsWKF+z/1/Hu6yILVqFHj6PIqVqzoukHy11+XevXqOREcPHiwu7eLrBeSt27dOidUfJ7pCBZ1WV/kkXVBKBE3ZO+rr75y3SnJ4lWoUME+++wzN10SJsJARiRs1C9jrGjxT23k6DHelORFEiaCkISJ0CIJO/tIwkTY4H4qJIruemSDfAlDYriPiuyRn2mimyIZqYIFC9rXX3/txIhsVLS8jB492t0Lxv1m06dPd5mvxo0bu/rch0UXQeSHjBvdBumWSHdIYHAQf7nI0fvvv+8kjNcUlgUEqf369XPdHGH9+vXuXjO2g/u7OnToYK1atXKCSNdF4P4zH9aNz0dnDaLfF+JskhEJa9mmg51zydXWonUHb0ryIgkTQUjCRGiRhGWMchUqW6ky3+meMJGUIEnIEfdv0e2PjBBZLQSGQndEsk90X+zWrZvrjojoMAohXQkRLTJP3G/FvVXID3Vh4MCBTsoYvIOuhwjdSy+95Lo7siyyX8ybQTwYFINsFWLHNDJb0d0REUCWs3btWpcJe+GFF1zWiywZMla/fn23rsgdBelj27jPC0FD/D7//HOX9UIEGUCETBuvmY54koVjIA8hziYZkTA9rDm+SMISE0mYCC2SsIxx+/2P2nW33q3REUVSwv1eiBIgOIxAiJAwSAcZLTJVvM/AHNxDhqwhSggaIwvS/ZDug2SzkC4yWGTXuDeMz/N/HwbhQNLokpga7gvjPX+EQqSNERoRNQYH+f77751Y0b2RMm3aNCeE3CNGBo33kT3+T+HzCBpZsmXLlrmBPVgu687AIMWKFXNZP4SSzyGUDC7CCHNCnE0kYWkjCRNBSMJEaJGEZQw9J0wkM4xCSFc8uucx8AVdB3mmFpkoBAXZ8R9kzD1gr776qstCMYQ80oWU8Rd5otsiQsZ9WAxp379/f/c5uv/xmnkjUAgb8059DxbChgiR9WL5zItMGP8n+4UkAtktnmGG8JHh4t4yBI7Psx4U7hVDELlfjHvTGEWRDB/TyJwhlAgcWTnmz3pRz99WIc4WkrC0kYSJICRhIrRIwjKGJEwkK0gLQ8AjMmSOkBfEiZEPER1/MAxGGyQzhuwgUAgLmSUyTsgPYuY/I4z7uBAe5jtjxgy3DISH+SBEQHdFlsNw9nRFJAuGwCFmZOHIXFHoRsggHggXWTAyVqwLGa5KlSq5LBdZMpbDsslwMeAGhW6PjPi4fPlyN2AHXRSZF6LFerRp08a9pvshoknXxu+++85tmxBnE0lY2kjCRBCSMBFaJGEZQxImkhWkCqFh8Ao/A0S3PLJIgCzxgGXkhKxRLIYMGXL0WV8IEfdh+YNhAN0WGaUQ+UkND3Um64YEsR50LyRrBsgb8/bnRTdB5sNIjogSw937+Jk8JJL1oCBYfJ51Yp7+fIF5s6zo4fT5DHWUCRNnG0lY2kjCRBCSMBFaJGEZQxImhBAis8iIhLVu19EuuOI6a9W2ozcleZGEiSAkYSK0SMIyhiRMCCFEZpERCevRq4899ER26xGRh2RHEiaCkISJ0CIJyxiPPPW83f3Q45IwIYQQZ5yMSNjGTZts8tTp7m+yIwkTQUjCRGiRhGWM+x972m6L7DdJmBBCiDNNRiQsKyEJE0FIwkRokYRljHkLFtqcefPjcsO+JEwIIURaSMLSRhImgpCEidAiCTv7SMKEEEKkRUYkjJiMwDMrxGaSMBGEJEyEFknY2UcSJoQQIi0yImEdOne1q2+6MxKEdvWmJC+SMBGEJEyEFklYxpg6fYZNnjJN3RGFEEKccTIiYW07dLZLrrnJ2rTv7E1JXiRhIghJmAgtkrCMcffDT9hNdz6ggTmEEEKccTIiYXpYc3yRhCUmkjARWiRhGUND1AshhMgsJGFpIwkTQUjCRGiRhGUMPaxZCCFEZiEJSxtJmAhCEiZCiyQsY8RTwnr0Tvli79S1uzdFCCGEOMbBgwftzXyFnIQtWy4JS40kTAQhCROhRRKWMeIpYf0HDrE///sSa9KijTdFCCGEOMbBQ4fs6RdzOAk7VclIGZjjZg3MESckYYmJJEyEFklYxoinhE2YNMWy3XqPFSlWwrZs3epNFUIIIVKYMXuuXXPzXfbMSzls/4H93tS0adepi11x/W3KhMUJSVhiIgkToUUSljHiKWH8eOR9t6j9/YLL7dPIuTRi9Bibv3CRioqKikoWL3Pmzbef+/S3p154zc69LJtVqlbb++U4OdNmzrJqtX6waTNmeVOSF0mYCEISJkKLJCxj3HbvI3btLXfFRcJg+MjR9nTkR/ay6261f110lf31vMtUVFRUVLJ0udT+dv5lEfm61mW06C2xdes271dDRCMJE0FIwkRokYRljGq16lnFqjXtyJEj3pTTZ9XqNda0VVv7tmIV+/Kbb1VUVFRUsnD54utvrVTZ8la5em3r0Lmr7dy5y/u1EKmRhIkgJGEitEjChBBCiORj167dtnLVavc32ZGEiSAkYSK0SMKEEEKI5GPAoCH2Ss68bgTeZEcSJoKQhInQIgkTQgghko+WbTvYvy+5xlq06eBNSV4kYSIISZgILZKwjFHo/Y8s77vv2eHD8bsnTAghhIgXelhzfJGEJSaSMBFaJGEZ4+6Hn7Cb7nwgbqMjCiGEEPFEEhZfJGGJiSRMhBZJWMaI53PChBBCiHgjCYsvkrDERBImQoskLGNIwoQQQoQZSVh8kYQlJpIwEVokYRlDEiaEECLMSMLiiyQsMZGEidAiCcsYkjAhhBBhpnW7jnbBFddbq7YdvSnJiyRMBCEJE6FFEpYxJGFCCCHCTL+Bg+3F13NbvwGDvSnJiyRMBCEJE6FFEpYxHnz8Wbvj/kclYUIIIULJrl27bcXK1e5vsiMJE0FIwkRokYRljGdfft1lwyRhQgghxNlFEiaCkISJ0CIJyxhbt223rVu3ea+EEEKIcPH777/bkSNH3N9kRxImgpCEidAiCRNCCCGSj1lz5rrf3Jmz5nhTkhdJmAhCEiZCiyRMCCGESD7atO9kF155Q+RvZ29K8iIJE0FIwkRokYRljImTpljvfgNs79593hQhhBAiPDRs1tL+edGV1m/gEG9K8iIJE0FIwkRokYRljG8rVrVLr73Z6jdu5k0RQgghwsHKVast19sF7ZJrbrKZc+Z6U5MXSZgIQhImQoskLGPQx/6eh5+0a26+2wp/8LF9U+57q1i1plWoXN3KV65mA4cMczdEw86du9z+LVO+klWoUuOEUq5CZWvUrIX9umGDqw8TJ0+17yPvla9U7YT630WmVaxWy34ZN96rbbZp8xZr0qK1lakQsIyKVaxVuw62Y+dOV//w4cM2YtRoK/d9FbfOqet/F5HMKjXr2vSZs119WL1mrdWp3yjlM6nqM4/vKlazzj/1sIMHD7n6hw4dctnCb76reGL9SEFka9b90ZYsO/a9sWjJUqtco47bxtT1y1eK7NvIdObps3//fuvQ+afAZbAddes3tg0bNnqfMLdN30b2R6zt5tixjBGjfvFqR47frl3WuFnLwH3LMhpF3t+zd6/3CbNRY8bZ19/GXie3jMiyp8+Y5dVOOX416vyQsl6pPxOpy3S6FkXfYN+rb38rXa7CifUjhW2g/SxbsdKrnRKUfedt3wmfiSyD9tmjV1+vdgosM3DfRuZTJXKsGKTGh3tQvo6cC7HqU1jfkaPHeLUjbeS339zxidmmIqVchSpWL/L+b5H26jN85GgrVaZ8zPqUryPLmDt/gVebQXS2uX0Rq025+pHjlPr7r3PXHoHbwf7jGG7ctMmrHWm3i5fY1wH7iVKqbHkbPGyEVztlwAQu4JSNnPux6rM/atWrbwcOHPQ+YTZ67Pg0t5t9O2PWsfOVc71S9VqB281x5Tshmm4/9w5sU347XLd+vVfbIu1rhZX5LnJexDiXKKXLVjjhGVWNm7eKtLXY2813QvXaP9jefcd6GEyYNMXtv1j1KSxjytTpXm2z3bv3uO8uzstY9WnnzVq18WqnkNa5xLaVjZz7q1av9mpb5P9rUo5d0HZH5vVzn35e7RSat2qXsq9i1Pe/b1l3nynTZrhti1Wfwj4ZN3GSV9tsX+S7sEadH932ff5VGXv+tVx2zsVX25fffHfcd1OyIgkTQUjCRGiRhGWcX8ZNsLzvFrVLrrnZzr30Grvoqhvtgiuvt/Mvv879QPvD1/OD8Ga+gvb386+I1LnhhEJ3kceeedHmzJ3n6kPzVm3t4qtvtPOvuO6E+uddns0uy3ZzZF829mqnBIFPPv+q/T3yRZO6PuWcS662l3PmsbXr1rn6v0WC36qRH/1/RX6kWefU9f8d2Z5rbrrTOnY59mMzORLo3PngfyKfueqE+szj3MuutfyFPzjaRZNAiu+Gv5532Qn1Kf++5Bq76c4HbMTIY8IzZPhIu/KG2+28yLxS12dfUD6NzNNn+/Yd9tY7hewv515yQn0K63Tng4/b3HnHgvJOP3WP7I9rYm43x45lVKtVz6ud8uP+n2dfCty3LOM/z75om7ds8T5hLoD+879jr9P5kePHMjp06erVTjl+N9x+v1uv1PVZT45fjrfyHSdhn5Qsbf/3r4tOqE9h/rSfXyKBu8/4iZNd2+G91PVZxt/Ov9w+LFHSq50Cywzat8zr6hvvcHLn07VnL/vTORfHrE/5339e6AJFHyT6rocet3/GaFOUf150ld0def/gwWMygvj98e/nx6xP+VNknxBU+yyPiCj7gvWNVZ/jlOvtd73aKbwTacdB28H+4xguWLjIq202eOiIwONN+eM/zneC4cMFGp41+I8LroxZn/PylnsePi4or1u/UZrb/b//vMC6dOvh1bbIub7errju1pjnEuUv517qvhOiee+jTwPb1AWR7aYdzoi6MDN6zDj7W+T8jnUuUf74jwsiEvCtVzuFx599OfJdeHnM+nwnXHfbvU6cfRo3b53mdrOM1u06erXNyfHVke+ufwds99/Ov8yeefl1r3YKJb4o7fZfrPpsGwEcMugzacpU+0fkeztou5nXx5+X8mqnkP2VnMHfhZF1ZZ2jxb5Nh85u22LVp7BPGjVt4dU227Z9u91wx/3u9+TcS6+1O+5/zCpVq2Vbtm71aiQ3kjARhCRMhBZJ2OmBBKxYucpmzJrjpGzs+ImuEPj58fKBSACJBBAQ++9HF6ZPnznL9uw5FnCtj/yIjItR1y/jJkyy1WtThAr27t0bWYdZaS5j1px5bl2AYJ7gOaj+mMi2TJg02TZsOBYUkBHiinPwZyba/AWLjmYA+bs48p0wekzwMsj4bdu2w9WHbdu2O1kYE6O+X6K/Z5BJ9i2Zp1h1WcbkadMj+/bYleCNGzcdd6xiFa50+yAAHJ+09hXvk/nzWR35/KgxY2PW90t0dg5hZV8ErRfLnh0l6bB4yTJ3HsWq75cdO47t2x07d8Ws4xeWsWjJEq92ClwYCNq3FALT/fsPeLUJgDenuU68tzJq39JGpkSOT9C+ZTrv+20KaLcnW0a0ECN6ser5heM0J0rSYV6kHZ9s33LO+SANaR1v5sV3QjRTp88M3u5x4yOB/jSXsfZZvXbtSbd7Q1QQz7me1rnEceU7IZoFi5akuQzWN1oMt0faV9A2UJjX0mXLvdopnOxc4jzgvPZZu379SbebANyHTPz4yHcX84pVn2XzfR3Nyc4lPkOPBh++C0+23WT1o6H3BNnMWPVZV9bZ70UA9Iw42XYj2j7sM85HjvmCxUvce9H7MdmRhIkgJGEitEjChBBCCJHISMJEEJIwEVokYUIIIYRIZCRhIghJmAgtkjAhhBBCJDKSMBGEJEyEFkmYEEIIIRIZSZgIQhImQoskTAghhBCJjCRMBCEJE6FFEiaEEEKIREYSJoKQhInQIgkTQgghRCIjCRNBSMJEaJGECSGEECKRkYSJICRhIrRIwoQQQgiRyEjCRBCSMBFawixhR44csTlz5ti0adNsxowZJxSmz58/36udwpo1a2zSpEm2Z88eb4rZ7t27berUqTHnQZkyZYqtWrXKq50C8509e7b9/vvv3pTIl/z69a5urHlQeG/79u1ebbMDBw64aStWrPCmpLBo0aLA9Zk+fbrNnDnTDh065NU227Jli02YMMG2bt3qTTE7ePCgq0f9WPNh/osXL/Zqp7B8+XI3nfXy2bZt20m3ie324ZiwX1Lvd/ZfWvPhWHEcfDg+HKe1a9d6U1Jgvmkdb9oD6+Dz66+/2sSJE23nzp3eFLN9+/a5/RK0b1hP9kU07Cve++2337wpZhs3bjzpvtm8ebNX29xnWeaSJUu8KSksXbo0zeNN2b9/v1fbbMeOHW6bWL7P4cOH3X4P2qZY58Lq1att8uTJtnfvXm+K2a5du056LnAORTNv3jy336PPhXXr1qW5b1hG9LnA9lF/5cqV3pQUFi5cmOa+mTVr1nHnAvs71rng1089DwrzT31Mli1b5qbzWR/mebLjTXvzoR2yfgsWLPCmpMA2pjUfjlXq7yfOBfapD/ua/Z7WuTB37tzjzgXOU9oNx9iHY0/doH3Deqb+fuKY8N1Cm/M5lXOB7ykfjhnLpe1Hc7Jzgb/R30+0IY73pk2bvCkp5xn7Pa3jnfqY8P3EucB3gw/fGUHrQmGbUp8L7HNKNHyHpbVvWAbntA/rwLqk/s05lXMh+vuJfcK+Sf2b49dPPQ8K84/1/cSxSv2bc7LjvWHDBq92yvcTbYZtiIa2ldZ8WG7q7yfacOrfHPY5+yx1e4pGEiaCkISJ0BJmCSNQueWWW+ycc86xiy666ITyj3/8wx5++OHjgsOyZcvaH/7wB/fF7zNu3Dj7+9//bhdeeGHM+fzv//6vff75517tFJjvDTfccFxAULVqVfvjH/8Ycx6UP/3pT9a7d2+vdkqgx7QiRYp4U1J44YUX7G9/+1vMeZx33nl25ZVXHheQdezY0W1Tly5dvCkpP/xXXHGFqx9rPsz/5Zdf9mqnULhwYfvLX/5ynID07NnTrWOseVDYXrbbh2D6+uuvt0cffdSbksJnn33m9mOsebDfOVbjx4/3apv7QWWbypUr501J+bF96KGH7J///GfM+dAObrvttuMC2Dp16rj5DBs2zJtiThjYLxdccEHM+bC9BQsW9GqnwL7iPaTUp0mTJmkeb7a3devWXu2UoOj888+3119/3ZuSQt68ed1+jzUP1pESHbwMHDjQbVOjRo28KSliduONN9q5554bcz7s39TH5KuvvnLzIXjzGTlypGsbaZ0LpUqV8mqncN9997nzMDoor1ixYpr7hu3t37+/VzvlwgP1ixUr5k1JIXv27GmeC9dcc81xMtq2bVu3Td26HQuCkM1LL73U7ftY8/nrX/9qOXLk8GqnUKBAAbdcPuvTtWtX+7//+7+Y86Cw/rVr1/ZqpwgO6/fEE094U1IoXrx44HzY77RvpMuH84JtYp/6EGzfe++9gefCv/71L7vzzjuPk4pq1aq5+YwePdqbYi7Q5bwJOhdYz6JFi3q1U+CYXH755cfJXIMGDU56LnTo0MGrnSKErGPu3Lm9KSm89dZbgeeCf/yiA+0+fSJBb2SbmjZt6k1JkeVs2bIFngt816c+Jny//9d//Zf7bvAZOnSoaxtB5wLbW6ZMGa92Cnfffbfb79G/OXyHnexcGDRokFc7ReT++7//20qUKOFNSeHpp5926x5rHmwr2xx98aF58+Zu36T+zbn44osDzwXW5c033/Rqp5AnTx7XzqJ/czp16hT4fU5he3/88UevdsqFBH6Pnn32WW9KCh988EGa5wJtE2H0+eWXX9w2pf7Nueuuu9zx47s0CEmYCEISJkJLmCWMq9QEojVq1HDBT+pC0NGqVavjfhBHjBhh5cuXP+4HhUCLL/VatWrFnE+lSpVs8ODBXu0UmC+BR3TgOWbMGBcoxZoHpXLlyscF0wT0TCOQiAapYn1izaNmzZpWr1694wIgMiDIZfQVWN6nHvVjzYf5d+7c2audAutRpUqV466ccsWYdYw1Dwrby3b7EByyX6LlAwgy2I+x5sF+51hFX1Xm+HCcOF4+HMeWLVta9erVY86HdoAYRWcvuBJMEBQtlgTt7Jeg4832RgcuwL7iveiMFFeN0zrebC9Brg9yyHJ/+un4c6lHjx5uv8eaB+tIic4icKWa4x19IYGLAQ0bNkzzXEh9TAgyK1SocNwVa65Mn+xciBZaINjjPIzOuhDop7Vv2N7oTCzbR/1oMQMC97TOBQK9aOnmajv7hiyRDxmNunXrBp4LrEvqY/Lzzz+75UZnUJnnyc6F6AsJZA5YP8QwmgEDBgTOh/1O+47OAHNefPvtt8fJE/ua/R50LjAdMYnOjIwdO9adC9HZRjJ3tJm0zoW+fft6tVPgmLA/oy9AcdHkZOcC31M+BOWsY/fu3b0pKfA66Fzwj1/0hRDknePNueiDeNavXz/wXOC4pj4mfL9///33xwk9wsK6BO0btnf48OFe7RSaNWvm9nvq35yTnQvRYsnFGtYlWsygXbt2gecC28o2R0s3WST2TerfHC5MpXUuRF/AAL6fOFbRvznIatD3OYXtjb6QwHcyv0ft27f3pqTQr1+/NM8Ftis6u0x2kHMh9W8O+5x9xroGIQkTQUjCRGjRPWFCCCGESGQkYSIISZgILZIwIYQQQiQykjARhCRMhBZJmBBCCCESGUmYCEISJkKLJEwIIYQQiYwkTAQhCROhRRImhBBCiERGEiaCkISJ0CIJE0IIIUQiIwkTQUjCRGiRhAkhhBAikZGEiSAkYSK0SMIyDu29d78B1rJtB2vUrKU1bNLCuvfqYzu9563wLJkp06ZbgybNrXHzVieUhk1bWPPW7Wze/AWuPvAMGb4w0vpMv4GD7eChQ64+z1BhX/7YsGlg/VbtOtjKVcceSrtq9Rq3XN5LXZ/toIwcfew5LTwviGX+kMYyWOctW449SHT+wkUx509h/vydPHWaV9ts95491qVbT6vfuNkJ9SnMq2uPn23fvmPP8WLf/tCwScz6LKNJ5O+ChdHPqtoa2RcdA9eL6X0HRD27J3L8ho8c7dpsrPoso1mrtsf94K9es/boPoz1GY5r9L7lOXQ/9+4XfPwi82ndvuPRNgW0l6DtpvzYqJlNmzHTq222b/9+a9cxuE01iLTbzl172OGo54BNmDjZ6tZvHLM+pX5kGcuWr/Bq83yi7dakRevA7abtHLdvIwwYPNTqpXH82PYtUQ+npQ0HtUFK3fqNbOz4iV7tFLp06xFpUwHnUmS727TvZAeinjs3feZsq9sgeLvrRd6bv2CRVzul3TZv3T6wTXFce/Y+/jlcwyJtKrDdRgrHg4DSZ+269W5dY9WnsL4jRh1rU8AyA7c7sq4t27a33buPPX9t7rwFgW2QwjJmzjr2oGOep9e2Q+fg7Y60j649eh33bLkx4yZEpgcvg3M/+ntqY+S7sGkabYrzcvDQY88ZBNpYWtvdPHK+0lZ9Fi9Z6vZ30DLY7ujvqYMHD1mnrt0Dt5tld/qpe+Q781ibmjRlmpveqNmJ9Snsq0WR9fDZum2btWzTPo1zqYn1GzDYfT/5DB42whqk2m4+z28T7S36+WLJiiRMBCEJE6FFEpYxOnTuas++9IZdcs1N9r//vND+8Kd/2R/+6y92zyNP2vIVKQ9LJcD+rmI1+8P/92f3/v/78znHlT/8z9/sz/++2BpHfpx9Jkd+sC/Ldov7zAn1WUbkM8+9mutoUM6Pa5FiJewPf/jvE+q7z/z3X+1fF191XADcf9Bgt1zmdUL9yA8MpeD7xb3aKQE2P27By/ibW+eZs449rBXJY9kxt/uPf3fTy5av5NWOiGFEXm6668HIMv7vhPruM5F1vfXeR2zjxk3eJ8y+rVg1Uv+/YtePLOP/i/xtEQk2fVi/cy6+2q3XCfXZt5HpT7+Y49iDWCN/8xV6P7KM/++E+u4zkWX8378uOk6qBg4ZnrJ9kX14Qn2WETmuBd//yKudIrgPPZE9soz/OaG++0xkXudeeu3RNgUEWIHbzTL+8EerVL2WVxux3xxppzfHbFPuM//fX+yGO+47Tka++LpcZD5/iF3fW0a3n4898HpuRAw5r1nfmJ+JtB32bTQvvp47Mj1g39IOI/OaOftY4N+n/0A3H5Yf8zOR9f24ZGmvdspFkBsj2/WHP/wpdv3I+Xre5dls+/Yd3ifMqtWsF6n//2LWp/Ae4u2zeu06++u5l8Y8l1Lq/489+PizXu0U3nZtKo3jFzkeo8eM82pbRLB+iaxr7HPJfSay3e++d+x8hfv/83RkesC5FGnnf7/wclu9+tgDoxtFpIJ1TWsZNevW92rTprbYhVfd4M792PX/aLdFztfoB6sX//SrwGW47Y6sL8fYB3n577+dG/Nccp+JtJ3X8xTwaqfwzEs57A//70+xlxE5Rn865yKbFxFOn/adf3L7O3gZf7CyFSp7tXkw+C7LduvdMb9DUur/ybLdcs9xD5z++ruKbvof/i9ou/943O/vnHnz7e/nX57GufRflj3y2/N7lODmzFsgst3H/87wf36bbrj9Piv84Se2cPEx0UtGJGEiCEmYCC2SsPRDcHDH/Y/ZVTfeaRWr1bLekcBhyLARNmjIMJs4acrRbA1B4NJlyyOB+TB3pZI60WXQ0OE2bOQoWxMREJ8dO3fa6LHj3GdS12cefGbajFn2W0TwANGbN3+hDRg05IT6lEERKSCI27R5i6sPm7dscctlXqnrc2WZwpVxn0OHfrNp02dG5C14Gazzrl27vU+kXL1neqztHhxZLtOXLF3u1U65sj5uwiSXHUldn8K6jp84+bigjn0btE4sY8iwkW49fFg/Mgas1wn1I4XpU6fP8GqnMGfufOs/MHgZQ0eMsq1RV9Y3b9masn2RfXhC/UjhuEbvWzIFtKcBg4K3G8mLzgCuWbs2eLsjhX0YLW1cvSeoj9WmKEwngxSdtVgUCdjIfsaq7y9jQ5QQkxFif6fs9xM/w/qm3rfTZ85K4/ilbPuu3cfa1KbNm119lh/rM6zvgkXHMp/Adg0cHHu7OV9HRr6HyCb7LF+xKjKf2OtEoS2siYiXz/79B1y2NNa5ROG4cnyjmT13XprHj+OxbfuxNkVmJOhcorDd0W0KJk6eGtnugDYVmdfwyHcC55wPGVzWNa1lrIjKUtGm+A6PdS5RaB+cr9FtasHCRW56rGW47Y68xzH24btwyHDa1In1KRyLaEkH2hj7L9YyOEbDIudrdAaQwN3VD1gG270k8j3j89tvhyNtakLgdtPWxo6bEPnOTOmpAIsjcRHTg74T2CfRmU/Wb/jIX9I8l/g+js6EsR9ibXfnbj0s19vv2tMvvGbzFhzfRpINSZgIQhKWSRCQpoZAOPpHNhq+KP2r3gR3eyKBRHTZu3dvzHlC9GeD4P3oH6HUr8OAJCz9lK9cLSJgd7gr4kFtSwghhDjbILbr1v0aGMskC1lJwoJi3aBjTJySVqxLj5qgz55KzJp62WGLdSVhmQANa+DAgbZo0bH++oAstWvX7oTpMGDAAOvdu7ft2rXL2rZta++8847ly5fP8ufP78rrr79uP/0UW04GDRpkw4cP917Fpl+/fjZ+/HjvldmUKVPc8sKEJCz9FCxa3K6+6U5bFdWdRwghhBBnh6wiYchO//79T4hpiWOJVxekyngiRCNGjLCePXu6xEKLFi0sb968R2Pdt99+25Vu3WJv08SJE23o0KHeqxNBtoYNG2YjR470ppiNGzfOTQsSu8xGEpYJ0NBmzpxp9evXt19//dVWrlzpXs+ePdsaNWpkZcuWtQkTJtiMGTNs/fr1zv43bNjgBI1pwNUCCvdp7Nixw0aNGuVEjYa7Zs0aV88vv/zyi1WsWNE1XF5Pnz7d5s6d604E2Llzp7Vq1coWLz7WPQYJ69q1q/cqHEjC0g/dO6684fbjugwJIYQQYYS4Zn8krglLUHwmyEqZsKlTp1rTpk1dLLtixQqbNWuWi3Vr1qxp5cuXt0mTJrn4l/eJX1evXm3du3e3yZMnu8+TnPBj3e2ROGb06NFO0oijiZ+ZH2XhwoUujn333XedZPnx77x582y311V848aN1r59e1u+/Fi33TFjxrhERViQhGUiyBeyg+2/8cYbljNnTnvvvfesaNGiVqRIEfe3V69e7spAjx493JcSgkUjJLOFvdOYsXsaGvUQqg4dOrj5+PMia8a8CxUq5F7z94svvjh6FWLOnDmuYdJwaYxcSeCkqVSpklsGWTuk0G/IZwtJWPrxJYx7NYQQQogww71wlWvUsdlz5nlTko+sdk8YF/0pjRs3tty5c1uOHDns/fffPxrr8n9iXXpjde7c2X2G+JjkArEusS1xKuLFfEg40C3x22+/dZmxDz74wLJnz24fffSRffXVV/bll1+6v5988om98MILNnjwYDdP4mRiW+JZ5kF8SzKkTp06NmTIEDeN95DBs4UkLBMgq0VDI0PlX+3B4kmLxoKGQhaLuk2aNHGN9vPPP3cN9+OPP3ZXF+bPn+/kKdbwrkuXLnXziL4B1weBY10oXEVgvjTcRx55xBWW8emnn1q9evXcep9NJGHpRxImhBAiUahas45lu+Vu69mnnzcl+cgqErZu3TrXo4rYlmwW0OMK4YkF9Tp27Ohki15hJBBKlizp5OrDDz902TJkjNtnGKyHbBnJhDZt2liuXLmc5BErk7To06ePEza6KLJMls80Eg7c0kOcy3yffPJJu/fee938mUasuzlq0J3MRhKWCaxatcq+//57++abb9yzlmDJkiUu80S3wdq1a7tCX1oaDlcBSM9yL1n0PWNIFQ2OBpaWhJE9Q/hiQXoWyeIqhM+yZcvc+jGd9QoLkrD0IwkTQgiRKNSs+6PdcvdD7rmWyUpWkTBiyRo1aliZMmVcrAnEq3RDrF69+tFYl0wV8S3C1KlTJxfbdunSxXUnBKSsZcuWTuro/YVMAXEvPb6eeOIJe+aZZ9y8ELHSpUvbTTfdZD/88IOrBwhciRIljrtnjMxYlSpVXKxLMiMMSMIyEQa+8LNL3KeF+Pz444/WvHlzq1atmpM0uheSko2WML9h8nwPMliIEo2RbBd1aOTcV0Y6lsZYrFgx10+WLoi8ZjoNnJQr3Q8LFy58dOAOpI/36HNL4+T9s5majUYSln4kYUIIIRIFSVh8CFN3ROJX7t8C4lekjG6BxLrcG1auXDmXkCCz5UsYsa0/WBzjFzRr1uwECePeLv5PYoJ7u5hfhQoV3C05zIvxFHxYB3p6+Vk4lkGWjiwagsf7YbgPURKWSTCYBgfdT3siWn7DAu6/QoaQKu7ViiVhW7Zscanb6EwYNy/SmPv27euyW8yTLoyVK1d2DQ7xY/q0adPcOpD+5STwR4thOp9hOg2ZLBzTwoAkLP3wYMwrrr9NEiaEECL0SMLiQ1gkjIv4xLJ+rEtsSZdAH3pvEZsy6EaQhBGrkuFCwuiOSHKAAT+Qt1KlSrl7wBo2bOgyasTK/J8kBpkvkhB8lmUwT38QDsZW4P8kL4h5GfuA7otnG0lYJkGGi36rY8eOdYVGiaH7zysgjcuVAtKwvoSRpUKo3nzzTTdcJ31g6dNKd8O0uiPS/RHJSw3LorEzVCiZMOQNIWOkGZbJycD/Eb+zfT8YSMLSz+u589tl2W6RhAkhhAg9krD4ECYJI1nAIHRID4kA7unyYcwCYkwSD76EEfciUq+++qoVKFDADVNfvHhxF4ciStyqs3XrVpcgQLAeeOAB+89//uOki55eDNZx66232ltvveXianqLIXKIFrEuMse9XyQ0kLCff/7ZzYuMGDJ4NpGEZRIID42KvqhkrRihhcE5fOif2qBBAydKvoT56VMaFZJGoUsi0LeVqwBkwlJDypaG598YmRpkkPmyPLJfZM1ee+01e/bZZ133RRorVzLOduOUhKWfmvXq2weffG67o9LyQgghRBiRhMWHsEgYsS7ZKASJjBP3bZE48CGObd26tety6EsYsao/uAbvE8P68SexLrfL+PAZ4la6I5JsIF7m/4geMa3/OcSOGJm6dFtEuLgFiNETKQzKQZKDdTmbI4FLwjIJnoVAposMFsZPw6CRMCwnjYq0KVcHgAyX3zBT91mlgfOcBfrLcoUB2+eZC1x1IF1LYfAOblAk/epPo7AOwPukdOl6yDK4csGVBq4w0KeWbpCsD0N3nk0kYemH9hIk3/Fk7959tnrNWlu0eInNX7hIRUVFRSVJypKly504+D11ziTVatW162+7137W6IinRVgkDOFi5G16VRGnckGfWJdEAwNxMFIhmSjiTLoqUhdSx7oM7EFcy/vEwz5IF9ky/xFMfsmTJ48bB8EfEIQ4CKkj1iWm9mNdhI74GwmkJxmvgwayywwkYZkMqVgaoD/4BY3BH4Kevq+AVGH2qRslDRnxomsifWK5OXHt2rXu/4wYw5CbFK5CUPzXPFOBQjdEYN5IWTRk5c5mQ4yFJCycTJ02w0qWLmt3Pfi4nXvpNfaXcy+1v553mYqKiopKApe/UCLf55dcc7M99cJrLku1cWPKiM5nih8aNrH7H3va+g+KPYx5MpCVJMyH22IQMHp0IfMMiMEQ9NHPrOUvyYDUEOuSGWMQOXpnkbzwIU7mNfOknl8YM4HMl38vGtJFggORi4bPp552NpGEidAiCUs/B/YfsL379kW+lLwJcWbFylV27yNP2rmXZXM/KJ98Udq+/OZbFRUVFZUkKR999pU98Piz9ud/X2JfffOd7Y/8rpwp5s5b4Loirlm71puSfGRFCROnhiRMhBZJWPqpW7+R+wE9U/eE1fqhgV19811WsnQ5+3VDStpfCCFEcjFl2vSIOOS0q264w2bPmedNFRlBEiaCkISJ0CIJSz8v5njTzrnkatuydas3Jb68+14xu/nuh2zh4qXeFCGEEMnIj42a2vmXZ7OuPXt5U0RGkISJICRhIrRIwtLPmX5Yc/ZXctot9zx09J5GIYQQyUm3iHzdcMf99mPjZu6+mzPB2nXrbPqMmbZla/I+VkUSJoKQhInQIglLP2dawp5+MYeTsFiPRhBCCJE89Ozd126+60Gr26DxGZOwRs1a2hPZX7bBQ4d7U5IPSZgIQhImQoskLP2caQl75qXXnYTt37/fmyKEECIZ6dGrj9105wNWr2GTMyZhVWvWtWy33qMh6k8TSVhiIgkToUUSln4kYUIIIeJBZkiYHtYcHyRhiYkkTIQWSVj6kYQJIYSIB5Kw+CAJE0FIwkRokYSln9dzv2OXXnuzJEwIIcRpIQmLD5IwEYQkTIQWSVj6KfBeMbstss+2bd/uTYkvkjAhhMgaSMLigyRMBCEJE6FFEpZ+Zs2Za2PGTbBDhw55U+KLJEwIIbIGmSVhjMAoCTs9JGGJiSRMhBZJWPiQhAkhRNYgMySseu16dsPt91mvvv29KcmHJEwEIQkToUUSFj4kYUIIkTXIDAnjgdBFi39qEyZN9qYkH5IwEYQkTIQWSVj6mT5jlo0YNUbdEYUQQpwWmSFhByO/VXv37rPffjvsTUk+JGEiCEmYCC2SsPTz1juF7Oqb7tToiEKchH379tnOnTu9Vynwes+ePd6rtDl48KDt3r3be3U827dvt22pzkHqs8xoqDNx4kSbMmWKK6tXr7Z58+bZuHHj3OtJkya5/y9ZssSOHDlihw8ftoULF9rYsWNt/PjxtnTpUjfflStXunqU+fPn6/wUcSEzJCwrIAkTQUjCRGiRhKWfN/Lkt8uy3SIJEwkB0jNy5Ejr2bOnde/e3UaNGmUHDhxw7yEo/ntdu3a1CRMmuOnRICZIyYoVK7wpx8P7I0aMsG7duln//v1t48aN3jtmHTt2tI8//tgtt1evXk56qlWrZp999pn16dPHevTo4aSGdeS9vn37ujJ58mQnQ6xbiRIl3Lr17t3bpk6d6gJVxIx5FChQwNXnPaSpUaNG9uWXX9rAgQPd8oYMGWKjR4+2IkWK2AsvvOA+07p1aytbtqx98cUXVrhwYbd+H374oX399dduPTZv3uzqMb1kyZJu+oIFC6xu3br2ySef2DfffGPvv/++EzEhTpfMkDDOJXpucK4mK5IwEYQkTIQWSVj60cOaRSIxffp0e/HFF51AfPXVV04gOnXq5IIyMj2vv/66Ex2k5IMPPrDBgwcfF6xt2bLFSQrikroLLu81b97ciQryQx3ECplBXMqVK2evvPKKFStWzL799lsrXbq0q5sjRw4nQNRv06aNy0yx/DfeeMPVr1Chgk2bNs3Ns1SpUla1alX3Gf5PpqtZs2buPQrbxvq//PLLbv4IVPbs2d22NmnSxHbs2OHWs0OHDu6zy5Yts9q1a1vTpk3tu+++c/+vVauWVa5c2dXdtGmTm/7jjz+6zzOd9WvRooU1aNDA2rVr5+bNNCFOl8yQsCHDR9r3VWq4kX2TFUmYCEISJkKLJCz9SMJEIjFjxgwnPn57mjt3rpMZMjlklshM0d0OyGQhTn6mDPg8EkQGaObMmd5Us127drnpVapUsb1793pTzUnO8uXLnbRQnwzanDlzXICJoK1atcp1JaQboA91kBuyY2TN+vXrZ99//71Vr17d2rZt68SQv8yXdS1TpowVL17cbQfyxd9HH33U8ufP7wTpueeecyKFyAFdEMmAkflbvHixVapUya37559/7uSQ+SF+yCMShhDyeQQMUaSrYv369d2+QcTIkrEfhThdMkPCKlWrZVdef5t1jywrWZGEiSAkYSK0SMLSjyRMJBJIFGKCXMDWrVudONEtEQnj/wgVdO7c2WWm/EwYMkY2iG6KSBDZIR+6/5GJ+vXXEwMeMkpIDLKCIOXMmdMKFSpkb775puvih9gwjW6CP/30k+vuiIQhYGTpfv75Z9fFEekiq3Xdddc5cfIhi4U8Um/AgAGu6+GgQYOOdk1E4mrUqOEKbNiwwc2f7SSDxT1igKSxX7hHja6TdKVE8qjvs2jRIjdP5JFukiyTeUSLpxAZJTMkTA9rjg+SsMREEiZCiyQs/UjCRCKBhJHZWbdunetO2KVLF5f9IRuFhCFDb7/9tssi0Z1vzZo13ifNSRDZKKSKzBlS4w+GgdQgUNxvkhqCSbJHw4cPd/dlIVR0B2T+fAZhYhrv022RQS+QM7oWPv/88259uQeLbofcK8Z6kg3j83wOSZo9e7ZVrFjR1SXT55dPP/3U3UsGSBWC99FHH9mzzz7rZJRsHF0W8+XLd3Tb6QbJ8tnOoUOHuv/TBZOum++++64TQf6+9NJL9vDDD7vpSCbrLcTpIAmLD5IwEYQkTIQWSVj6yZm3gF1x/W2SMJEQzJo1y8kDWahcuXK57JU/yAb3hPGarBhSg1ghP3TLAzJMDRs2dDLDZ+ieR5dBoHsf/08rcKQOwsI9Ye+9955bPvedkSHjHjXmx7IQP7Js3J9FN0E+R6YNgSJ7xblAxo1t4f4uGDNmjMuGMQgHYuYXprVs2dJ+++03V48sF9PJpJHJ4h451pt5IYbIHYN3kAEkS8hoiMybfcP9buw3Mm/+ACF8nsFE6E4ZNHKjEKeKJCw+SMJEEJIwEVokYeknx1v57JJrbpKEiYSATBgCgWSRDfO7HgIyQXdEX7qQLQapIPtEhotMEwNikDWikKUiMwZkjMhUBbVTBsFg3iwDuUGEuK+Mro2sh/8aAaOrH90B6UZIpop5I0ncp/XWW29Z3rx5LU+ePG4ERh8kje6MZLm4t8svdHv0RdFn/fr1RwcjoRsh94Vx7xrTyNQhXggfIyPWqVPHnnjiCXePGdvPewgdWUEyaPfcc4/LjLFuvhAKkVEkYfFBEiaCkISJ0CIJSz8/Nmpmn375je0+xWcdpRdJmIgn/j1hiFBqECQyT35bQ07o8kcXQT6HhJAB430K3QLphoewMD+yaAzmEQ3TyT5xPxlSRRc/RIsBLehuSFYJESML9sMPPzgp4n2yYHST5B4yMllkmlq1auW6TQLrSobMh2xVzZo13X1gZLP84g9L798DB8yD+bM+FKSU7oV0Q8ydO7cb6p7BORAzRJSuiEgnWTzWCRFjYI6CBQta0aJFXX0k8UwFzSLrIAmLD5IwEYQkTIQWSVj4kISJeEJWi+6AZINS88svvzihoNsdg3IgWEgSAkW3RKZH3/NFdov7rhAaAkbu7eL+KUZC5PN010PK/GXxl2eQ0dWPboPcD4YkMcgHMuRn4Bi9kNEO6apIQQRZb+5B47Nkx/h/tISRCaNboz+yYXSh6yMDaLCOzJtulqwnmSwE0ocBOlLf10W3RwSRdSQ7h6QyuiNCyLowSAejJCKqQpwumSFh1WvXsxtuv9969T3+gkkyIQkTQUjCRGiRhIUPSZiIJ2vXrnXiEN0N0QcBIRuFyPgZKEZGpDDqYKxnYSFuiJZ/zxWjB5Ix4/PIGdJD20W4eHhy48aN3bKZzmuyUhQEj+6MrBvvRQ9Zj+AwBDzSRGH9eK4Y96f50J2RZTIfJMsvyBOjL3I/G9tBxor7wRgunyCXropsM/MiI0Zd1ovXrANdJblfjcKgHxTWhW6aTKM+XR4RMyFOl8yQsDr1G9pdDz5ufQcM8qYkH5IwEYQkTIQWSVj6ORQJPhnG+kz9YErCRKJDd0QyY9HP0qJbIuLCez5koshYxWrrZN2iP4+4RUshsoRw1atXz3UV9AsDfPCX0RxTgwxyXxmy6D+MGQFDyih0kyQ7R7dMH4SQ0RgRRR/mzf1jQpwumSFhCxcvsUFDh9vaMyQnYUASJoKQhInQIglLP5Wq17L8hT+wXWdoZDRJmBBCZA0yQ8KyApIwEYQkTIQWSVj6eTHHm3bOJVfblhgDHcQDSZgQQmQNJGHxQRImgpCEidAiCUs/elizEEKIeJAZEoaUzJg1x7Z5I40mI5IwEYQkTIQWSVj6kYQJIYSIB5khYfUaNLZ7H3nK+g0c7E1JPiRhIghJmAgtkrD0IwkTQggRDzJDwlKGqL/Pfu7Tz5uSfEjCRBCSMBFaJGHpRxImhBAiHmSGhOlhzfFBEpaYSMJEaJGEpR9JmBBCiHggCYsPkjARhCRMhBZJWPp5I09+uyzbLZIwIYQQp4UkLD5IwkQQkjARWiRh6YdnhN1894NnbKQpSZgQQmQNJGHxQRImgpCEidAiCUs/K1ausnkLFtrhw4e9KfHl6RdzOAk7cOCAN0UIIUQy0rN3XydhdRs0PqMSdvNdD0rCThNJWGIiCROhRRIWPl56/S0nYbt27famCCGESEa6dOth2W69xxo3b+VNiT/VatW16267V6MjniaSsMREEiZCiyQsfBT/9Eu74Y77bcToMd4UIYQQyUj5ytXs35deYwMGD/WmxJ+uPXpZkWIlbPykSd6U5EMSJoKQhInQIglLP+MnTrb+g4bYwYMHvSnxpdNP3e3ia2+y5159wy1r2fIVtnrN2khZo6KioqKS0IXv8rW2eMlS69y1Z+T39xG766HHbcWKld4vgMgIkjARhCRMhBZJWPp5JWceO/+K62zL1q3elPiyc9cu+/Srb+zSa2+28y7PZg89kd2efel1d6+YioqKikrilmdeSil3Pfh4JG660m68834XHJ6pe4yzCpIwEYQkTIQWSVj6yZm3gF1x/W1nbIh6YGTEzl172GcRGctbsKjlfPtdy5WvoIqKiopKAhf3Xf52QSv0/kdW7vsqNmzEqDM2IEdWQhImgpCEidAiCUs/Z/phzanZsnWbrd+w0X7dqKKioqKS0IXv8kjJzIGX+g8cbKXLlrdpM2Z6U5IPSZgIQhImQoskLP1ktoQJIYQQGaVi1Rp2WbZbIhLR25uSfEjCRBCSMBFaJGHpRxImhBAiUdDDmuODJCwxkYSJ0CIJSz+SMCGEEImCJCw+SMISE0mYCC2SsPSTGQNzCCGEEPFAEhYfJGGJiSRMhBZJWPp58fW37NxLrz1jQ9QLIYQQ8UISFh8kYYmJJEyEFklY+mneup2Vq1DZ9uzd600RQgghwokkLD5IwhITSZgILZIwIYQQInmpUecHu+nOB6xX3/7elORDEiaCkISJ0CIJE0IIIZKX6rV/sBvvuF8SdppIwhITSZgILZKw9HPkyBE7cviw90oIIYQILytXrbYJkybbps1bvCnJhyRMBCEJE6FFEpZ+vvi6nD3/ai7bsXOnN0UIIYQQZwtJmAhCEiZCiyQs/bz8Rm477/JsGh1RCCGECAGSMBGEJEyEFklY+tHDmoUQQiQKa9evtxmz5ti2bdu9KcmHJEwEIQkToUUSln4kYUIIIRKF6rXr2Q2336eBOU4TSVhiIgkToUUSln4kYUIIIRIFDVEfHyRhiYkkTIQWSVj6kYQJIYRIFPSw5vggCUtMJGEitEjC0k9mSdjadeutc7eeVr5SNStZupx9+c23KiqhK198nVIqV69t/QYOsa1bz+x5MW36DGvYtIWVKlvejVQaa51UVMJaUs6Xcla1Zh3rN2Cwbd+xw2vZZw5JWHyQhCUmkjARWiRh6SdH7nfskmtvPqMSVvvHBvb0i69ZtlvvsXMuvtr+cu6l9tfzLlNRCWGhbV5q5112rd16z8P2xHOvnJFuT8uWr7D3ipWw+x972i7Ndov97fzLdV6oJGC51LXb8y/P5sTo2Zdet1/Gjvda+ZlBEhYfJGGJiSRMhJZkkbCNGzda//79bc2aNd4Us7Vr11rbtm1t9+7d3pT4kK/Q+3bTXQ/atu1nZqSpSVOm2o13PWCXX3erlSpbwf1AL1i4yOarqIS4zJg9x13d5/ENT7+Yw0lTvDh06JDViASSBLGPPv2iNW3RxmbPnafzQiUhC+12+MjRVqRYCTv3smvtlZx5nEScKSRh8UESlphIwkRoSRYJ27Jli3Xq1MlJ2IEDB2zVqlU2Z84cq1SpklWvXt2WLl1q69ats4MHD3qfyDjbt++wTZs325EjR7wp8eX7qjVcBqxxs1aR9T3kTRUi/Bw+fNgq16htfzrnIuvao5c39fQhqHry+Vfs8ewvu6G2hUgG9u3bZ6XLVrDzr7jO+vQb6E2NP5Kw+CAJS0wkYSK0JIOEbdiwwfr06eOEa+jQoda0aVPLnTu3FS1a1AoXLmzvvvuuFSpUyAoWLGjjx5/Zbh/xIE+BIu4Hc+Wq1d4UIRKHQUOH22XZbrGadX6033//3Zt6eixctNguvfZmK/7ZV94UIZKDHr362vW33xsRpfp2+Axd2KtYtaZdnu3WiET09qYkH5IwEYQkTISWZJCwUaNGWf78+e3ll1+20qVLW8uWLV0mjMzX9u3bbfPmzbZp0yZbuHChzZs3z/tUeKEr1y33PBSXrJ0Qmc2YcRMi7fdhK/NdRTtwID5tmK6HZNfKlK/kTREiORg9Zpzd+8iTVrrc967b7ZmgZ0T0in/6pU2cPNWbknxIwkQQkjARWpKlO+LWrVvt559/tl27drnXc+fOtebNm9vKlSttwYIFVr9+fZs+fbp773QZPGyEdejc1XV7PBM889LrTsL279/vTREiceAexpvvfsjKRoQpnhL2539fbN9ExE6IZILfwnsefsK+/rbiGZOwrIAkTAQhCROhJVkkDCHi3q/vvvvOevTocVTAfGbPnm0//vijLVmyxJuScZ57Jadr71si4ncmkISJREYSJsSpIwmLD5IwEYQkTISWZJCwMWPGuHu/ChQoYK1bt7ZevXrZhx9+aJ999pmVKlXKvvrqKytZsqSVKVPGZchOlzP9nDBJmEhkJGFCnDqSsPggCRNBSMJEaEkGCVu9erUbip5M1zZPjKZMmWJ9+/Z1mbHatWvbwIEDXTaM0dtOF0mYEMFIwoQ4dTJDwgg+C3/4iY2fOMmbknxIwkQQkjARWpKlOyLC0rVrV1u27Pg2OGzYMJs5c6b3Kj5IwoQIRhImxKmTGRJWqVpNu+K62yISodERTwdJWGIiCROhJRkkjIcx0yWxcePGtmjRIjcyIn8ZCbFhw4bWsWNHdy8Y0xgl8XSHzZaECRGMJEyIUyczJEzPCYsPkrDERBImQksySNi0adPcs8AQLmSLLoj58uU7+mwwCv/PkyePe6Dz6T5kWRImRDCSMCFOHUlYfJCEiSAkYSK0JEt3xMxEEiZEMJIwIU4dSVh8kISJICRhIrRIwtJP9lfesL9fcLmGqBciBpIwIU4dSVh8kISJICRhIrRIwtLPz336WcOmLc6YJEnCRCIjCRPi1JGExQdJmAhCEiZCS7JJ2Pz58909Yqnv+9q7d6/NmDHDNmzY4E0JL5Kw9DNq1KgTngH3yy+/uMcSnApTp061xYsXe6+OZ8+ePTZ8+HDbtWuXe00b6tmzp23evNm9DoLHJMyZM8d7dXJYTu/evW3FihXelMREEnb6EIzT5vw25reNoDbKYzp4DMf27du9KSn89NNPVrRoUfvhhx/c4zumT59ua9eude/NmjXLPv/8cytRooR98cUXrvB/nq84evRoVweWLl3qBj7yBYGBkFjWjh073GufQYMGuc/68yhWrJhb7s6dO937fG7ixIlHX8P69ett3bp19uuvvx5dL76rqZdVyAwJq17nB7vxjvutV9/+3pTkQxImgpCEidCSLBK2YMECNxz9zz//bF26dHEB82+//eZ+3AcMGGArV660Pn36uBESw06iShijURLUMRAKD84uW7asrVmzxr03YsQI++ijj9x7RYoUsRYtWrjjEw3BV/369d3z3WLBoCuffvqpG3SF5RBQAsElA688/fTTbt6ffPKJmw/rkD17dnvvvffcdNrFwoULrXTp0u7h3m+//bZ16NDBBZNMy5EjhwtYqc/jDnwIQBns5csvv3SBJct/8sknLX/+/O71+++/bw0aNHDrz/wJZj/44AN79dVX7Y033nB1KMybZ9b5wStts2LFim6f8D6Dyzz++ONuAJnoz7Rs2TKh2oIk7PThURtff/21lStXzj14nvb91FNP2ZtvvunaBW3u+++/t40bN7r6Q4cOtVatWrl2y3u0fc6D/v37OzniIgNtiHOIAYyWL1/uLiYgepSaNWvat99+a0OGDHHnKiPMAiPJMo9u3Y4FnYge9VNfhGCeyBuFCyB83/LsRgQRtmzZ4gZG4nMIINuRO3duy5s3rzsX2Tbqs6zXX3/96MBKiOTpjmgbZpQJiw+SMBGEJEyElmSQMB7AzA/1K6+8Yi+//LIrBLLffPONCwaaNWvmruYSjPD3dNm7d5/t2r37jAUGiSphZKO4Cu5noAioCBSRk3bt2jmRQZwICCtUqGDdu3f3PpkCAkPQhRBx5d+H/Tx48GArVaqUCzYJ4MaNG+euxhPgEXy2adPGqlat6tZh8uTJVqdOHXe8mzRpYr169Tr6eAKyoSybdUMSyWghhCVLlnQSTwBJuyEQBdadeRGokmkbOXKkqzN+/Hj3l3r8pV3RDplOMMv0sWPHOoHjMxSCS6QL+QLmx3r7y2WdWA+2gfrMg/8T3J7uiJ6ZiSTs9KC9N2/e3F2MIPNFG6DQtvz2RNvgosfBgwfd9wTyxTmB4NCuOMc4H7g4lRrOHz5Pppb5AfP2L37wvj+dLFXr1q1dDwPmzTnEucS8mcZrpkd/V/F/Clkuzi9fwrZu3erOAepzfrN8zl3//OWB+5wznOfIWufOnZ0w+qKZrGSGhDGI1IqVq2x31PdqsiEJE0FIwkRoSQYJI8tFVx2/mww/3lx13bdvn7uiSyaBK8vxkrAixUrYvY88Zdu3H98dJ14kqoQRuBGc+d322PcICUEdwoWI+RBkEXz5EHgi0tSrVKmSCzp96NKHnPiBoQ8BKN2W6tat68QLUSJgpA34ASifYTl0UaUbFPOiDoEsy0PQyIaxXLIHZLkIHH3IAhQvXtyJEGL51VdfuWwcmTgK/69SpcpRsWJ9yGhF1/EL2TGyaQSuQBBN5oH2ScaLiwhkBVgeWQKydwhponVPlISdHpwvZFm5YME5xMWL1G2OduRn9REo2jtyEw3tOro7LucLbYm2zLlAJgz5ITvGRQDOBd6rV6+euyACfK+yfL5TOT/eeecd10afffZZd6HLfxQI5x6SRfaNLBbrz1+yeMgY+BLGdzPLR7D8TBj1OccRMXou8JeLJewD6isTJk6GJEwEIQkToSUZJIxglq5mBCM8sJkuXwQVBMR+EB5PCXvtrXx28dU3aoj6VLCvq1ev7oI9IAAkq8TV/B49eriuVWR9CPaqVavmAj4fJIZAkuPDFXmyQj4IG8c11v4gkKxcubIL9vx7WuhqSABIwEpgR9CK1CBnBLhk5+hOheAQqHL1na5TdEMk0EQWkTrWu0yZMi7IRPQJJll/snLIE4X/s93+fS6TJk1y84+u4xfaKNvo35dIxoJ6dE8kM0HwCQSdBw4ccP9PRCRhGYc2zn1Ub731lmuriAsXJFK3OTLCSBddcWnjH3/8scvaRkN7iz7HmBcXRXLmzOkywkBb4/uTdsu8+b9/bxbtlPOqfPnyx2WmudhF99vo+8/IApPZ4oIC7wNCwcUPlgEsn+8B5sv5xTmHAHKeIXFc8OB95A5Ba9++veumiCgmUiY4vUjC4oMkTAQhCROhJRkkjO5vBCJcsSWjQJc2gmeCB7qakfkgGImXhOk5YbGhOxRBG9JLlomAD8kBXnPPB/erIEpkr6IHGSAIow4QxCHSfgaoadOm7op8EARoBJFksKhHgIh4EdAhfEwjuORqOpkwRCtXrlz24osvuqwbYsTyfWbOnOmmE5T6mTOyDv502hVX6Sm0OTIHfuCK+LON0XX8QvaC+3z87lWsE8ulbfIZgm+EEznk/2TnEEc/iE0UJGEZB7Eig0t3RNoHF4+4YBDdnvg/3VqpR7vn4gZtlOwV33HIF5krvhNpR3RVpNB9EDgnuUhFNpg2xnlCu+aCCZkqXnNBgPORaXwWCeMc4FxCirgwgXBxfvldHrkfl3Oe5XMuMh8uUPgCF50JAz5LV1/u3+SiyXPPPee2g/lz/nIPaceOHZ3gJTOZIWGLFi+xIcNGnDE5CQOSMBGEJEyElmQZmIMrqvyAc58PwS5BDEE0gQfT45kJk4TFBgnjyjUZKI4DQZYP2SWOgw9XwQn8/Kv3BJoIHALF/8kEICSA1BHgBcF9K3SDQu4IUrmnhC6BzJ8sGetCdoqsAYEkYk7boMsT2VM+T3BJ9o3id2cFurQSbPI5P4hkfQgUKfyfLBb1gKwa6+IHk9EF8UTC/K6LZAm4+o9skukjgOV9unwxD4JrZNQfJCFRkISdPrQXMslckOB7K7o98X+yxbRRsrNkoDhXuA8MoeECFG2ec5F2RLui+F18ERvkn7ZLG/MvXnHO+HX9Lr5ka1kWcogwUY/6dMHlL11suYiBPHDBgnOXZfMemWkydH7WLVrCuHCC6NG+Oee4d7NWrVruu4N6WYnMkLCK1Wra5dlujUhE8MWsREcSJoKQhInQkgwSxg8Xg28QcJBF4C/d3fhB54c+3gNzSMJik7o7YjR0LeI4+NuEHBOoEZAhGQSOBHO+CHEcESqugpPpJNuERMUCiUGs/OUiVwSLBKh09aMtEOBxrxrZgmgJI3PF/7nXq0aNGm45ZBD8zBufQcLI2hGUMl+yC8gihWCVoBPJBwJIJA6poksVn2V5BMdsF8vyu1bx/+j7z3xop36XxUREEnZ60OYRLTJhFO4RpJ35bY52xIUmuisCmVTaWerzg0xW6vsJyQYjcv7Ioj6cB3532Gi4QMHFFLK3iJ5/H5oP3XQ5j/wuiNEw+inr4H/GlzD/nki6M3Jxhm1jm/ju4EIMYsi5z/cDF19Sj6KabGSGhGl0xPggCUtMJGEitCSDhJGFIJjlSixXj7lvB7ji69/cTrBP1y5J2JkDWSLj5AdZ0RBsIWG+gCBlBFsEnARxiE00BH+I0YQJE9zx5eo8kuRnzgj6kCICOe6fYgQ2hsNHeLhij0jRjZHXXMn3A0HaB4MAMHT8M88842SJ9UZ8fMhm+SPF+RKGvHFFPzq750NWDwljXfgc/6eLFsePYJrA04f18Ls+Mi+6hpE9IKNAJo971+gqSZdaXhOAs+8SqS1Iwk4PX8LIQiFhSFNq+I7jPaAXAFmt6PMOcaHdMI9okDDOPbox0p7984k2SdfE1MLDeeVLGN+ndMmNhosprF/0PWM+CCCCxbkMqSWM+yi5v41ui8gW68sFDdbP785ItjjZkYTFB0mYCEISJkJLMkgYASo/2lzNpZB1oBsMGTH//hsCAgLe6BvVM4okLDbIC93/YkkY94kgPggQ95NwXwv3UbGN3N/iZ558yGqRvUJQAMHiajmf9bs8+oJG4EL2CUmjaxaBIkEpwR+BHF1T+TwBJu+xjnSd5Co9QSESxkiEzJcuWfxF2AEJQx6RJ7p7ce8KgkR9CveX8WBa2hUyxvxYL7pXsX0sB1mkHRJo+l3HCGgRROoSaBIE012sX79+LgtAEM5rujoS6CbSfTGSsNODY03bQKBod7RJit/mOAdog/7Ih2RpqU8b41zgnEJwaLe0Ny5SUPw21KhRIzciYbR0MdAH936lljAuYPHdykUsLm5wDjPwDevBXwb5oGuiP5AMy+D/rAPtnuy2n6FDwjjn+Mv8OO/5jqbbIl2IOacZlIN7wbiIwmsuQvAZDcxxekjC4oMkLDGRhInQkgwSxtVdMiP88CMCBA1cJSYI5wot3cKef/55F3zHumKbXl7JmccuuOI62xIJJs4EiSphrC8BVyxh4PggKggFxR9Om+CKgMy/pyoaAsnoYbepQ1BKcEq2iYCR12TfuLfKv+JO1gqJAdaJ5XF/GIEq6xG9LGQPCULayJrSbpB1ugoC9XlNtoGglwCWOv52MI0r+Eg+2878WG+E0B+IhFEXCXoJSMk8UMi8IWx+8OpDEIaI+d0bExFJ2OnB+YOok01FsMgS0878NkehzfnDyHNeISp0DeTCBWLE0PGvvfaau7eStoe4MRgHkNlFumjbPlyI4CJCagnjQgLdFDlHuXBAVix6PWirZML87yq+f+myyzrQ7nntDy/P+cHFFuZFO/e/D9g2ujJzkYJ7xLiQFr2MRO6aeypIwuKDJEwEIQkToSVZBubw4UcsdSBBUMxV4ngIGHxSspQ9nv1ld7/RmSBRJexswPEmuIu+Uu5fjY+GNuA/vyw11E99pd0PhgggESvqxKoHsaYjWrQ5v5AdjJY/6scKuKKXl6hIwk6f6DaX+vsMaCd+G6Et+fX5TkJaaG9knLiI4bc///sk9bkBLCNWe/TbaVB7Bab7osUyWCbrwPL96cD//XlFw7pxIYUsGBnzrIYkLD5IwkQQkjARWpJNwjKDQ4d+c0FPdIARTyRhIpGRhIn04MtZtMxlJSRh8UESJoKQhInQIgkLH5IwkchIwoQ4dTJDwipUqW6XXH2Tdet54sBCyYIkTAQhCROhRRIWPiRhIpGRhAlx6mSGhLGMWvUa2Lz5KQ/WTkYkYSIISZgILckgYXQN5IZxRthiiGP/YaGMMue/5j2eseM/KPd0aNexi1WuXtv2xhhMIh5IwkQiIwkT4tTJDAnLCkjCRBCSMBFakkHCuKmcke0YcpkRthiWnIfuIl+MGuY/c4ZhwOMxmMYLOd60cy6+WqMjChEDSZgQp44kLD5IwkQQkjARWpKlOyJDhDMcsg/DNfOcJR8eTOo/V+d04TlhV1x/m54TJkQMJGFCnDqZIWGMSPnb4cNJPfCJJEwEIQkToSVZJIwhwXm2Dg/J5fk3PENn8ODBblh6/vJsHIYpjwd6WLMQwUjChDh1MkPCmkV+5xGUoSNGelOSD0mYCEISJkJLsg3MwUN2ebDumjVr3ANIeZgvXRHjiSRMiGAkYUKcOpkhYVVr1rFrb77Levbu601JPiRhIghJmAgtySBhPIx0xIgRNmzYMFcQsdatW1vNmjVt4MCBNnToUHc/GP8nQ3a6XTIkYUIEIwkT4tTJDAnTc8LigyQsMZGEidCSDBLGvV7ffPONffbZZ/bFF1+4UrRoUcuXL599/vnn9uWXX1rJkiWtePHibuAO+sefDmdawp5+MYeTsAMHDnhThEgcxoybEGm/D1uZiDDFU8L+dM5FViYidkIkE6PHjLN7H3nSSpf7XhJ2GkjCRBCSMBFakq07ok/qgTniyZmWsOdezeUkbPfuPd4UIRIHzu0b73zAvv2+StyCyjnz5tvfzrssEqhW8KYIkRwMHzna7nrwP1a2QmU30u+ZQBIWHyRhiYkkTISWZJWwefPmue6HZ+LK4os53rJ/X3LNGRuivkixEk7CkvnBmiJ5GTh4qF1wxXX2Y+NmcRuNbcmy5Zbt1nvsveKfnrFAVYizQccu3eyqG++whk1anLHRCyVh8UESlphIwkRoSVYJmzt3rg0YMOCMSNi48ZOsd/+B7iHRZ4JGzVq6TFvRSMDJqI9CJAoEQu8U/sAuvPJ6GzI8fiOxbd6yxd58p6A7L7pk0g+pEGcaYqZXc71tl2W71cZPnOxNjT+SsPggCUtMJGEitCSrhM2fP98NTX+m+tifSfgxeezpFyOB7A2W/ZU37O2CRe3dosWtwHvFVFRCWd6NlHyF3renXnjV/n3ptVa42Ce2dWv8uutyH2f3n3vb+Zdns5vuetDeyJPfChT5UOeFSkIW2m3eAkXs4Sefj7Tp66z0txVs3xkciKlqzbouk/xzn37elORDEiaCkISJ0JKsEoZ8Mbpgoj6cctnyFfZF6XJ2/e33uftrCDxVVMJcbrzzfrv57gfty2++PSNBEN0QBw8bYS/meNOuueWuyDJ1Xqgkbrnhjvtdt/PK1evYzp27vFZ+ZmjUrIU9nv1lGzR0uDcl+ZCEiSAkYSK0JKuEnUnWrF3n2vrhw4e9KWcG5v/rho22aMlSmzd/oYpKqAv3bW3ZssWOHDmz58WePXtt1eo1Nn/BopjroaKSCGUp58vWrZlyoZCLkvv27T/jv1lnE0mYCEISJkKLJCz95H33Pbvh9vts2/bt3hQhhBBCnC0kYSIISZgILckgYQxH37FjR/eA5jZt2ljbtm3tp59+svbt27vXlFatWlmHDh1s2bLTb6Pcj3JZtlvO2BD1QgghhDh1JGEiCEmYCC3JIGELFy602rVrW+XKla1q1apWpUoVy5Ejh3toM68pvFerVi03auLpcqafEyaEEELEC0ZebNK8tS1avMSbknxIwkQQkjARWpKxO+KuXbusV69e3qv4IwkTQgiRKFSoUt0uvvom69bzzP0unm0kYSIISZgILckgYTyvq1OnTlakSBErVqyY5cmTx3Lnzm0ff/yxK8WLF7eCBQtay5Yt4zJkvSRMCCFEoqDnhMUHSVhiIgkToSUZJGzr1q3WuHFj69Kliw0ZMsRq1Khh/fv3t2HDhlnFihXd/WC9e/d294xti4M4ScKEEEIkCpKw+CAJS0wkYSK0JIOEMSw2AsYAHWS6ypQpY++9957LgvF39uzZTr4GDhxomzdv9j6VcSRhQgghEgVJWHyQhCUmkjARWpJFwuiOuGDBgqNZsZ49e7qsGAN2TJo0ydauXWv9+vVzdU8XHhZ7ziVXu2e8CCGEEGFGEhYfJGGJiSRMhJZkk7AdO3ZYqVKl3D1gH374oRUqVMgmT55s69ati5uEfV+lhr1dsKjt2r3bmyKEEEKEE0lYfJCEJSaSMBFakkHC6GLIc8EQLQbpGD16tPeO2ahRo9yw9Hv27LHBgwfHpTuiEEIIkShIwuKDJCwxkYSJ0JIMEsaQ9D/88IN9/vnn9u2337rsV/ny5a1atWouI8a9YV999ZXVq1fP1RVCCCGyCt9XrWGXXnuzhqg/TSRhiYkkTISWZJAwuiAiYd9//721a9fOdU1s27attWnTxjp37mwdO3Z0D2yuX7++qyuEEEJkFebMnW8/9+5nq1av8aYkH5IwEYQkTISWZJAwuiBu3LjRexXM9u3bXd3Tpc6PDa34p1/Y7t17vClCCCGEOFtIwkQQkjARWpJBwjKbl3PmsfMvz6bREYUQQogQIAkTQUjCRGiRhKWfnHkL2BXX36bnhIlQwLPxUg84Q8Z3586d3quTQzdd5nMy9u3b5565d/jwYW/K8bDM1Mvl9cky0LwfjwepCyFOZOeuXU5SOH+TFUmYCEISJkKLJCz96GHNIkz06tXLnnjiCXfv4/Tp02316tXWoEEDy5Urlw0bNsymTZvmHljOoDTLly93r/1pBGU8Q69AgQJuUJspU6bYwoUL3WiivMffaLp27WrFihWLeW8ldXksxDvvvGMTJkywefPmuXkx7++++87mzJnjntm3atUq7xPHoC6D6DRt2tQmTpzoyvjx491nDhw44NUKBilkHitWrLDffvvNPbidz86fP9/9ZbrP/v37benSpW7UVN7n7+LFi48TS5a5ZMmSo3XYV+vXr3fv0a15xowZkkaRMNCF/s4H/mN9BwzypiQfkjARhCRMhBZJWPqRhImwgFww8ucLL7xgjzzyiH366aeuvPrqq06G7r//fnvttdesevXqTrw++eQTe+655+yVV16xl156yQ1cwyiib775pvsc4vbUU0/ZmDFjrH379vbZZ585IeIZfL1797YPPvjAnnnmGWvVqpX16dPHxo4d6+SOLFrfvn0tb9689thjj7l5I3W8zp07t1ufe++914oUKeKk8ffff/e2IAVE5/XXX3fLL168uCsIHet9smf7MS/Whe3s1q2bq4/QXXrppXbZZZfZBRdcYI8++qiNHDnS1Ue4qMt7lAsvvNBuv/12+/HHH53AArL6/PPPu/eZD/NgG9gPFOZfoUIF27t3r6svRJipXrue3XD7/darb39vSvIhCRNBSMJEaJGEpR9JmAgDZGuaN29ugwYNcg8kR1wQkBEjRliXLl1cnS+//NKNGAo8R49RQlu0aGHdu3e3ihUrOiG75ppr3OMdmF+jRo3cIx6QEB5ujoiUKVPGLaNs2bJOXpCwr7/+2t577z17+umnXXaLzFLdunWdFNapU8eNRHrkyBEnNmSQyCiREduwYYNbl9Twuffff99mzZrlTTl1pk6d6iSyR48e7jUZKpbFujFiarly5eyBBx5w6866kCXLkSOHZc+e3b1fuXJlJ3+IFkKLWK1Zs8ZefPFF9xne/+KLL+zWW291Esn7ZA/z589vPXv2dNspRJjRc8LigyQsMZGEidAiCUs/kjARBuhWV6tWLfvmm2+cbJH1QsRq1qzpslBkuMjeICPNmjVzmTDqt27d2skDAvLRRx9ZkyZNXIYMwciZM6cTLh/kKLr7YMOGDV13REDU3n33XZcpI5NFJo3M1RtvvGGPP/64kxdfcli/hx9+2NVHEoEufchapUqVrESJEvbQQw85seM16448nuzh6mTgqlSp4jJTftfJrVu3Wr58+axUqVLuNfDcQLpssg/IdrFfkEofuh4iYmTMkDpkjWweEgncs4Ykvvzyy044AaFl2skydUKcbSRh8UESlphIwkRokYSlnzfy5LfLr7tVEibOOtwHRQYIqUKeuBeM7BWCwf1b/fv3d2Xw4MGuLt0LERBkiywP3QnpXvf222/bRRddZHfffbeblw+CtWzZse91nsdHl0RAvMgGcR8ZQohcsUwyaAMGDHBCyDLIvPnr9/PPP9vMmTPd55E/xIgM2k8//eS6M9KdkOf88YB1MlXci5UWCCJix7x8kDC6YpK98uH/7Bdki8+wD8h6RQ9UwPLvu+8+ty7Uocsm6wbcB8Y86V7p3xvG/XaIGvtQiDAjCYsPkrDERBImQoskLP0wOqIkTIQBBqEgs0V3QkQDQSLzRSaI7FPJkiVdRoisE13o6JpHPQbKKFq0qLsPi/vJyCYxEAb3iOXJk8eJHfda0WWReZBBY96IEdkiPouQPPjgg06Y6GZIZowMHPVZNl0Eqc/7vCbbFv3AdLJzSFysZ/wha3z+ZBKGCLIeQ4YM8aakdEekSyXrRoaM98kSkpUjo0UmK5aEjRo1yv7zn/+4h7yTAaQOksi8kFbmwcAh7HPg3jLud0M4hQgzkrD4IAlLTCRhIrRIwtLPgoWLbPLU6XbIC8aEOFvQXY/7nxgkgvupyDaRGeJeMQQFsaJ7IINsIEm1a9d23fwYZIMuf3TTQ3aQMboZIhVkgPgcMkOGjEwWn0XMGHSDbBlSxvwREbJLZMIYHANx4S8jEtaoUcN11xs3bpyrS9c+uvxRH8g40b0PSSpcuLBbb7pEIj2sA9vld/0LgvmSoRo+fLg3JUXCmF+2bNnstttuc4NuIKL+aIaLFi1y68l9bf4AIdzXxb656667nNAhrKzDDTfc4O4FYzrbHD0QB9uBREZ33xQijEjC4oMkLDGRhInQIgkTInFBwpAXhAYYop7XdOkjy4M8ISkMxEEXOzJbiBf3jZGdYpRDug2SzaHLHV0JkSAG0qBrIFLGPID7wch0kSkio5b6XiiyVyzLv48L6WKEQ0QNSUP+ECsGxgDqkXFiWXSJZP3I2DGs/a+//uq6QUZnqmKBCCGK/kAkQHdE5IiMHsLF6+hh7plGN0nuh2PbGLCEDNfVV1/tRJT6SBgDc3CfG+8jcH4GzIdumHRHpFuiEGGmcvVadtUNt1uPXn28KcmHJEwEIQkToUUSJkTiwsAUyBH3RI0ePdqNZMgAF/49UXSvQzY2bdrkxIYMEVkgJIVRDhkNEVEic8YIi3QRRJQYwIJMFtKFCJE5Y9AMBIasEdO5v8y/PwrIxCF4CB33gJH1Yvl0lWR9yKIhh4CUkYlq3LixtWzZ0t3DhpBRl/vOGDwDIeJ+trRgMA7WhUyg/5wv5JDsH10IEarUIHyMCnnJJZfY9ddfb9dee63ddNNNTl7ZB4Dcsb4MGJJavnyQToTVH9ZeiLDSofNPlqdAEftl7HhvSvIhCRNBSMJEaJGEpZ8Zs2bbqDFjXQAsxNkCOWB4eAaUYEAO5IXneyFaZL7oPojocJ/X0KFDnVgwcAaZHUAieGYXGSOkhXu3yBAhKHQnZCAPRgoky8a9Vb/88ov7HCB1ZNXo5kfXReaJfLFM7r1iIBCEjnkiNoyQSHc+uipynxdZsSeffNLJHQ925j421oWMFF0jqce9ZYgf8pgWiBrr7w9vv3v3bpeFo8R6qDTiSCYQOSXThYSybtEPpuYeN9aZ9eQ+stSw71k/9rm+B4Q4+0jCRBCSMBFaJGHpJ+fbBezKG27TwBzirIIc0A2PodJ9UaGLH6KFQPkwcEe9evViDqVOlot5+Nkcno9Ftsp/TXaJ97mvKxYIoL881gMJ82FkRUTP71KIBCJoyBqShXSRVUN+Onbs6GQMQWJ9yVbRjZEMHd0U04KsGs8mQ6boynimQfKQL8SPzKAQ4uwjCRNBSMJEaJGEpZ838mh0RCHCBPKGPDJQx5lm165dLruINAohwoEkTAQhCROhRRKWfvSwZiGEEIlCvwGD7KtvvrOp01Oe0ZeMSMJEEJIwEVokYelHEiaEECJR+L5qDbv02putW8/e3pTkQxImgpCEidAiCUs/kjAhhBCJgp4TFh8kYYmJJEyEFklY+smVl4E5bnfPVRJCCCHCTK169SVhcUASlphIwkRokYSln3yF3rerbrzD1q5NGepbCCGECCsVqlS3G+98wIaOGOVNST4kYSIISZgILZKw9FOuQhW75NqbbdCQYd4UIYQQInzs27ff3sjzjmW79R5buHiJNzX5kISJICRhIrRIwtLPxElT7bNSZWzajJSRpvbvP2CTp063vgMG24DBQ08o/QYOtl/GjrcdO3e5+rBy1WobGJG4WPUpCN7SZcu92ma79+yxseMnWt/IvGLVZxkTJk1xP7jw+++/26IlS63foCEx6/ePTB88bIStWbPW1Qe6V44cPcbN68TPDHOfYXSt33477OrzDKk5c+dFtntQjPopyxg2YrRt2rTZ1Qf+z3J5L+ZnImX2nGPPuOJBuJOnTbc+/YOXMXL0WNu569i+XbNuXeD8/cK+8dl/YL+NGT8h8PgxrzHjxtuBAwe8T5g7Nn36D4xZP6UMs9VR+5bjN2zkqMi+DT4eEydPdcfNh33bu1/sZbCfaD+bNx979hf3KPrvpa5P6RfZvpmz5ni1U5g0ZVqa28Gx2rNnr1fbbG0kuAmuP8yt76LFx/bt4cNHbGTkXI/dplLa7YhIm6Mt+fA70qvfgJj1KXSpWrduvVc75Vlng4YODzzmtB32bTTTZs4K3LcU5hXdpjZF9nMf185jn7Os77z5C7zaKXDOB34nROZPViL6Qc/LVqxIc7t5L7pN0R7TOpc4L8dPnOzVTmHm7Llu/8WqT+F4bIvqZk2bCtoGCvOaHWmn0bjvqTS+E4YMH2EHoh6AzXdhmtvdd4CtWHnsWXEHI/ts6PCRaW4353M0c+bNT3MZfGbLlq1ebXMP+Q5qsxS2m4f2RzM+8v2b0kZOrM+6cqx4pp3PmrXr0jwWrO/SZSu82ikPCB82cnTgenGcRo8Z79VOgeNd4ovSdtHVN9rbBYse9x2WbEjCRBCSMBFaJGEZIBIn792b8gBa4Ms/T4Eids6l19hl2W45oZx32bX2xHOv2KwouWjVpr1dcf1tdnHkxzF1faZxz9kPDZt4tc0WR6Qh+6s57ZxLYi/j/Muvs9feyhcJ0lK6SPKDXaPOj3b+Fde5rF3q+hdceYNdd9u9x/2YTJ02w+577Gk77/JsJ9S/JNvNdtFVN1iB94o5oQCC3y++Lmf/uviqE+pTLrjy+kjbesQFDj4Entfdeo+bV+r6l1xzk10cKZ+XKuvVjohhJBii++c/LrryhPoUlsE6z44EWT5duvd084+13exbplev/YNXO+X4Pf1Sjsi+vfqE+hTm9eTzr9jGTZu8T5j9EGnHfOfFqu8vo33nrl5tjt8yu+2+R9zxSF2fumzHG3nyHycj7Nu/nX/ZCfUp7Kcrrr/1uPNo4uQpbl68l7o+0/8daZ/FPv3Sq53Cm+8USnM7rrv1Xlu2/Fgg2KNXX/t7QP1LI23kb+dfbtXrHNu3XBR44PFn3TkQ6zO027sfftK1JZ/aPzS0P//7kpj1KX897zIXDPmsXrPGrrrxdhdoxqr/jwuvtJx5C3i1U3iv+KeB+5Z2yPGYE/XAay5O/POiq9x+jPWZP597iZUpX8mrncLjz70c+J1w/hWcGw/bzp07vdpmjZq1THO7/xJZRoeoNrVx4yaX3Yh1LlE4L196I7dXO4WPS5a2v0T2X6z6bBvHaUrke8BnwqTJbhuCtvsv515qJUsfO1/hucj31L8ujn0usV+vv/0+2xT14PBW7Tq6/RerPoV90rx1O692ihjStY55xarPefxM5HyO5quy5d3+i1WfbeMzyKPP9Iik0zYvuSb2dtMGi336hVc7hVdyve3aSKz6HKNrbr7L1kfJQeduPSPH4tKY9Sls94+Nmnm1zXbt3m233/dozO8QCuf3o8+8eNyFnMo16tgf/3GBvRU5z+cvOPMPMj+bSMJEEJIwEVokYafP7siPY/eeva16rXpWJxJApi4E/G3ad7QNGzd6n4j8yM+YZXV/bGS16tY/oT7T6tZvbBMnTfFqRwKPrVvdF0nQMmrU/tE6d+0RCepSrt4fOXLEBRU1IyJGUJu6fs3IMuo3auqyLT4ECM1btnXrm7p+7R8auM/83KefHTyYcvWeq/hDho20qjXrnlCfwohcDZu2sGUrVrr6wNX+Hxs2dfNKXb92vQauDB463KtNluqAC/zTWkbzVm1sQ5QgzZ23wM0/1nazb5keHXBx/Np17BK4b5lXmw6dbc/eYxkhso5Va8Rep5RlNLCZc+Z6tc22RALHRk1buuORuj7rw3b8FAnKOG4+g4eOiARRtU+oT6kV2U91Iu0nOkPAPYrMy72Xqj7T2T6uokfTrUevNLfjx0gbic6MzF+w2KpEArtY9dlmgr7oLAQXA5q3ahezTVG4UNC0RZvjMkLjJ0yyStVqxaxPqVy9znEBJSJTL3K+xGpTFLbvp4iYR0M2L2jf0gY5HkiOD/uZNsg2xvoM6zt85C9e7RTatO8U3KYi292oSYvjMhNk09Pc7sh7s6Pa1J49ewLPJUrVmvWsY5fjg8UBg4ZG9l/AdkcKxyk6gF2zdq3bBt6L9RnWiSxkNHxPVQs8l350YrEnSrpnzJyd5nbz3rSo51sh7A0aN3fzilWf9eV8jmZo5HuKdY1Vn21jfVetPpZlJKDnO7V2vRPrU2iDqc+lzj91T+N7qr777UOkfObMnR+ZT9rbHZ3BPXjwoDVu1irmdwiF7W7VtoNXOwUygGSC160/ljlOViRhIghJmAgtkjAhhBBCJDKSMBGEJEyEFkmYEEIIIRIZSZgIQhImQoskTAghhBCJjCRMBCEJE6FFEiaEEEKIREYSJoKQhInQIgkTQgghRCIjCRNBSMJEaJGECSGEECKRkYSJICRhIrRIwoQQQgiRyEjCRBCSMBFaJGHBjJ842T149uPPSlmRDz+x94qVUDnFwv56/6PPrEz5yta2YxfbvGWrt1fDx/IVK6xJ81ZWslTZlHVPtS0qwcXfV198/a3Vb9zcPaMt0Rj1yzirUrOuFf/sKyus8zxdhf31wcefW7nvq1rHLt1tx45jD58OGwsXLXbPF/vsqzL6Pk9n8ffXl998Z42atbJFS5Z6ezU8SMJEEJIwEVokYbEpX7m63X7/o3bF9bfZBVdeb+ddls3Ou1zllEtkf51/+XV26bW32LW33G0vvZ7bFi1e4u3d8PBz73724OPP2tU33WkXXXVj7G1ROWm5+Oqb7Mob7rB7H3kyEqj09vZuuOHB2F+V+c5uvedhu/y6W+2CK3Sep7t45/ll2W6xbLfeY2/kKWCrV6/x9nB46NC5q9336FN21Y13RM7zG3Sc01u8/XXxNTe5fch35sDBw7y9Gw4kYSIISZgILZKwExkx6he76a4H7eZIcNamfSebt2ChrV6zViWdZeWqNS7LkK/Q+/bPi66yr8t9b3v27vX28tln5arVkR/sfHbupdfad5Wq2ZRpM2Juh8rJy/QZs+z7qjVdQP5ijrcS4reg38DBds3Nd9ndDz9pnbp2d5mSNTG2TSW4sL9WrFxlw0aMtjfyFrBzLrnaKlWrbQcPHvT28tln0eKlkeA8p7uYVrVWPZs+c1bMbVE5eeE78uvvKrrjnOvtd920sCAJE0FIwkRokYSdSKVqtVxmpEMXfdHGgyXLltuzL79udz7wmK1dt96bevYZPnK0O86fly5re/bs8aaKjLJ37z4r+XW5SLB7nfXpP9CbGl6+KlPerrv1Xvu57wBvijgd5sybb48+/YI9/ORztnXbdm/q2adX3/6uR0O5ilVt/4ED3lSRUXbs3GkffFLSLr7mRhsxeow39ewjCRNBSMJEaJGEnQh93+metGzFSm+KOF2KFv/UXYleHqJ92rlbD/vTvy6K/KB296aI06VTZF/+zz/Oz7Tvk9MhV76CdsMd99uGDZu8KeJ0+P3I7/bWO4Vcd7UNG8OzT5u0aG1/Oudi6zdgsDdFnC6Nm7e2//n7+aG62CIJE0FIwkRokYSdSJ4CRezSa2+2LVu3eFPE6VLii9LuO2LpsuXelLNP6/ad3A9qn/6DvCnidOk/cLDbpy3bdfSmhJfnX8sVkbD7bN++8HSRTXTyF/nQ3XP164aN3pSzT936je3//fkc+2XMOG+KOF06dulmf/jff1jP3n29KWcfSZgIQhImQosk7ETyvvuek7BNmzd7U8Tp8knJUvbPi64MlYS16dDZ/vCnf1nvfuHvOpco9B0wyO3TVgkgYS/keNNJmLqixo93Cn9gF199Y6gkLBF+cxINBjpBRiRhIhGQhInQIgk7EUlY/JGEZQ0kYVkbSVjWQBImCUskJGEitEjCTkQSFn8kYVkDSVjWRhKWNZCEScISCUmYCC2SsBORhMUfSVjWQBKWtZGEZQ0kYZKwREISJkKLJOxEJGHxRxKWNZCEZW0kYVkDSZgkLJGQhInQIgk7kXhJ2N69e23jxpRgZNu2bbZ9+4nPzjly5Iir50NAOHfuXJs2bZpNnz7d/V22bJkdOnTIq2G2f/9+73/HEz2ftDhw4IBt3brVfv/9d2+K2eHDh23t2rX222+/udf8XbVq1dF1mDlzpvtMRpGEZQ0kYVkbSVjWQBImCUskJGEitEjCTiReEtavXz/r2DElGP3555+tRYsWRyXHZ926dfbdd99ZgwYNbMqUKda1a1d79913rUiRIvbBBx/Y22+/bSVKlLCVK1c6SRoyZIh988039uOPP9qAAQOOls6dO9tXX31lbdq0ccKE8I0bN86GDh1qgwYNciK1Zs0aJ2oLFy605s2bu+Bzy5Yttnv3bje9bdu21rNnTzf9119/tZIlS1qBAgXs/ffft1deecXatWvnpDEjSMKyBpKwrI0kLGsgCZOEJRKSMBFaJGEnEg8J27RpkxMlxAfIZtWuXdsWL17sXsPBgwdt1KhRVqNGDStfvryTnFatWtmMGTO8GikgRnxu6tSpVrZsWcuZM6d98sknVqVKlaOlXLly9tZbbzlhQvzIYtWpU8feeCPyo5QjhxMsBG3+/Pm2ZMkSt5zNke0bOHCgkzbYt2+fk0XWnfVu0qSJW0dgPXv37n30dXqRhGUNJGFZG0lY1kASJglLJCRhIrRIwk7kdCWMbBGZJmQoOnOE4LRv3/5od8I5c+a4TFO1atWsZcuWtmjRIuvfv7998cUXTqyQszJlyriCxPl0797dZc8aN25sTZs2daV69epuPrt27fJqmetuOH78eCdXgEStWLHCNmzY4DJndHH85ZdfbNasWe79aPr06eO2we+yiKxRMookLGsgCcvaSMKyBpIwSVgiIQkToUUSdiKnK2GID5kp/34wH7r9/fDDD+59QIa6dOnipKty5cqum2Dfvn1dVgyxQszInn3//fe2dOlS9xno0KGDEy4kr1OnTq40atTIqlat6ros+syePdt1aeTz/L9bt2728ccf24cffuiyZsWLF7fSpUvbvHnzXNfJUqVKuS6REydOdPNavvyYMC1YsMCt52effeayaelFEpY1kIRlbSRhWQNJmCQskZCEidAiCTuR05Ewsllffvmlux/Lf819Xn72i0xUpUqV3L1aPmPHjnX3fAHZsgkTJrj/AwNmkPlCgnyQLwSKDBmyR/n000/t22+/dV0JgYFAWA7v1a1b12XYkMJhw4ZZs2bN3Dr26NHDJk+e7NYNseJeM7o+0pWREg0ZPQQNSUwtl6eCJCxrIAnL2kjCsgaSMElYIiEJE6FFEnYiGZUwuv2RwUJ4kCde//TTT25gjOiRCMk8cb8WIsa9XQx68frrr7tp3KtFtz9GItyxY4e7f4t7uciSIUtMI0PGchCqkSNH2vDhw52o0SURmaJLIsKEVJHhIgtG90IG8GC+DLpBt0jg/jMkEFgf5sUyyITly5fPChUqZAULFnSDhSB9DOSRESRhWQNJWNZGEpY1kIRJwhIJSZgILZKwE8mohJEtQmB84SKjVb9+fSdPlJ07d7rpgChRyJRxfxZCRVdCMmF58uSx3Llz2zvvvGOvvfaa60KIjFEPKXr22Wfd+4yayCiKZMWKFi1qzz//vOXNm9dlv6jPYBpkrhAt5ou4kVHj/jJEjhERkTPeA/4/evRot55MQwrJ0DGCI9k87lND4DKCJCw++HIfLfUQ/QiDs4kkLGsjCcsaSMIkYYmEJEyEFknYiZzuPWGAyDCwBZIFiAxik7orH+JGpozh68li8XfEiBHu8xTuBWNkQ+SJgqxxzxjdCek66I+qiOxxvxbTyGwhWNx7hkiR9eJ+MOaD6HEvGveVActC1IAMXsOGDd0AHtRhOHy6K3KPGMtA7DJKVpcwpAlB575Auor68JpM5aRJk1xXVX8gFwSd91LDqJUcL95jxEyOMYOrcN8f7YtjxeMI/Ge6sUzmxfLXr1/vMqQsyy88By7W8+sySlaXMEYP5Rj5j6LgNd8B7GuODRdEYu1vzteTrQfz4vsjerAfoC2kzlCzfEY/BT7HdwsXhVgP2gfr4beB1atXu3rxIKtIGMeKC1RcFIkF5x9d0hl8iWMbBBfnqJv60SW85mKZf4yiC9/JdBdPfSHGh+NNeziTF2YkYZKwREISJkKLJOxE4iFhZJT8ATj4MSVAZlAOpCn6fisCKDJXZLsIjqgTPYw9P/IIFMPI0+WQbBQ/7nQ9RMTIln300Uf29ddfOwFjWHwG+SDgRrDo5ki3QgSMQT4YURE5pBsk2a2aNWs6+QJeFy5c2P3I83nmxyAejz/+uFsvHvKcUZQJMyfbiCzdPpFy4P909SSDyXPZCMqAgB1hSg2BNQJNUM0xJRvK8+F4bAHtgMFVEDL/sQPMn3kRsNWqVcu1BQZr4bjyl8cXkAENCujSS1aXMASL48I+9QN1zikKj4948803j2aefQiWGQmVgW8QbL8MHjzYnetINCDUDOSDdEcH7bymG3M0LJvvDSSAdeLcZx38QXn4XiB7zmvuDY0XWUXC+A7n3lrOabqKjxkzxnr16uW6f9NFnC7kfDdXrFjRXfhCirioRR0K381+TwgukqW+OIcYf/75524eHCO/cM7mz5/f3e8b1G6ROuaZlvydLpIwSVgiIQkToUUSdiKnI2FcpebeK4ItPwtFN0B+ULmnikCLgMnPcvDjjASReUJ6CLK4kkmwTfdDgjOCZ97nR5vgjM8zOAcyhbxx/xYjJJKtYnm+xBHwE4QR8JNtIfhD1rhXjEE8CN4JzAgKgKusZEa4jw2RI6AnQEP+eD4ZIzCyXA3MkTYEUBwPgjSOEYVnrjF4CscS2SpWrJg7TgTayDpBNXXIYvI5jhHthbbDfXoIMAWh4rhQZ+7cuU6caQ+0A0QZASDYIxBDwBAz5sUxZv6pB1yh7REQSsLiBxls9ivHgBFGOYY+3O/J94O/vxErviceeeQRy5UrlzvvKlSo4M7pF154wXVH9oUduDjCeRg9UA8S1rp1a+/VMVg23x9kWKPhPPcvvMSbrNYdEQlDwPhe5NhxrvGAfb8HhA8X4riAxvc/he8B2gkDKfG9n/oCF5/nXI7VNsmk8xl+D/gcvwm0Cf+7hgtryBoDMvnTaIMIov+4ktNFEiYJSyQkYSK0SMJO5HQljB9mMlJkq+gm6I986IMY8QOcGgTID7i494qgmaHoubIKyA/dFQnQ+KHl6jbL4ceW1wRcFDJZpwpXaaMzbwQFdEkkk5caru7zY08gmF6ykoQR7BAEsa+QJQrtgOwjAlWvXj0XGJHNQoCQMqYjukgYMkWWgvocf4SZfU4wzZV1jjeCjlgRfDNv6tMuOHYEZQRqvM+gKsgf9WlPzINjzv/JmLFc1iNeSMKOgWgh42SkfLgQglQDF1poCxw/zi0uoJD5QuIJsrmowgPaU8Pxo/jQZgjYY0HXyNTfP0jb/9/euQBbVZ0HuGmmkzF12kqMqURjfCAREQVUhErEoGgMCpVHBazgBGg1qdrKOLapdUxbE5tUKyBUjbExikoksb5GS30UQaNRm6bBJFOrSdRMlYciAjICf++33Ttzcs85Ivece+7a2d/HrLncdc/j3rP23uf/1v+vdSg57o1ytSpIGOPKuPA6Allnzjsa13wy2wgXjXOSiZNGsGaXTDbnKOc+53pxbDCBxrndaCMkrgVMjCFhZM45txFAxI7G9YLHROb5nvcGfi9u165jXQlTwsqEEibJooTV045yRPlVqiRhBGeIFMJMYEUARFCNnBUz5JQwIeIINsESQk2JEQE4H55dfHwAEDAj5azj4fGQfG5DgMV9uR/ljAgVP0euuA0Q6HE/IKgneCd4IxNC0E+A2GxdS0+osoSRweY15rP3yFKSkSQALj42AgjeWbtJCTKTLrWSxf0GDRqUbbwzbNiwX+5aCgTbiHsjaeZ52GinFsacTGpR+kgwz5owShPJvJoJaw0ykZR2k4nmPOVcQoQRaspOGSu+p3EsNIIxQtSYJFm4cGGWEeV7zsdiLXCjdaFkWLmeNFvLSbaL36v72sF2ooQpYWVCCZNkUcLqUcLaT5UkDLEqygiZ6SYwY70f5YEEvwRwZMcI/umjnKn4eANK1fhKSSgCRbkRs+T0UcpGYEami6CaIB6xo5+MGqWN3J/vkTxm7LktM/NkTMmisSaM3TRZT0hAjxAgbO0K2KosYQTPBNbIFK8pGagia8zrS2M8CdoZd27DODA+jDF9HDs0hIlsJbufUjJMUM8aQeSNMa2FY4OsabGeEHhe1iUh6TwvpYmIGv08P+uKOBb4XVvZcKc7VSpHRIK6CzEZaDLg3ct7KTNHzshY83XOnDlZpppJF74i8JSmMs5kKKmIIEPOGHH7onF/+sh8Fcct1wImXtg5l3VjjC0fe0I2rHguJK9R9UVPUcKUsDKhhEmyKGH1pCxhvEHXZi4IsHqjrKjdVEnCKOUkgCIwZk0PwRCBGYE18kWWq8hU8ZXvCeYIrAio2QGTmW7W7rC4niwZATTrSgiYyW4gbdyOtYY01pkUz0mpEqVuZMjGjh2bPTePz3MTlBOwIQuUUZGlI9OmhLUPXk+yoQTHZKMImjkGaGy0wDgTEBN0U36IhI0cOTIrYUXaGUPk+KSTTso2xWG8CdYByS5K1rgOFPJeZFFrQbgYe8aWn7GhC31kPymdIyNGaXSjbEtPqdqaMGAMmGghG00bP358NuasDWOtGEJGWSjnKxMhfOXcpo8xYMKFxyBjRnkq13PKhsmmM9ZMttQ2JlsQ7EKqEDgy44wr1xjGFuniHOf29HP+d9+BsRWUMCWsTChhkixKWD0pS1ixu17xhsqbLtmQ1KmKhBFwMSaUpREck6EiQCIYIztFcH3ppZf+skSNnxO4sVvdpEmTsmCOgIm1REgXpYOUFrExCxBEI2iIA4EYgRqZE7JmfGXGnTJIAnzWECJvCAFBHo9JQMYaJTIjZE7IrHXfuKEVlLB3dhnlGGAMEB82TqGclOwG40FWsviYAsaFjBdjirxTkoakEagzpmRGajdTQcgoP2SjHSSa8laOA8SbdWW1UNLGYyNrHHscg4WEWY7YOrymjCfnK+c65x/lvpyrCBZjxdgjSUA2nIZ404BJGKSd6wbjWWywwnWea0ijY7PYmIPjCzh/eQwynEhbsR602LwFAWfsm5Uv9gQlTAkrE0qYJIsSVk+KEsabNEEVARQLr1mDQCDNDDiZEmZUaby5M/vZ7sCyVaoiYZSbka1AbigLJIBGmhEqxIv1H/QTfBMsEQxTXkZAR/BNsM7/CawRMAInAuwiaCe4KySMY4BSNbJg7HRJaRvlSATyxW5rPD6ix+PwmARsBGvchtlySiHblQUDJSwyyUWmGWekh0kSpAmxYsxqdzskm8E6ILJgjCFZMbIojCXHCrte1m6cQ7DNx1ywAQ/XA7KbBP8cWwhB7a58jDVZT44XhIDfq5CwogSu3VRJwji3yDSS8USYuu8au3r16mwzDDJbZLRZ41cIEscHElWsywQmazhHAQnjZ8V5XAvXBR6jkDCuH/wuXPuLz38kq8bxx/ORFee4QdIbPV5PUMKUsDKhhEmyKGH1pChhZL54o58wYUJW1kTpGTtvUbrENuSUpFHKRDBHpoVgPSWqImG87pQDEeww600QTQkS64MIhlnjw2w1wkxQzEw5pUkExMymM5NO4EYWBMhWMYtdZM5qJYyAi40figCLrwTiZE+Kzwgia1LMjhPUEYQTqBPwk5UrAsB2oYRFlolEjslEIN+M58yZM+PEE0/MMh210su4UILGfRhDjhW2OUeaKFNlgqVWrJB7pBvBIuPG+BOUA1kVds4svkfm+fw4An4mbDg++FuLTUN6g6pIGK8j5y6lgVybed0RMsYNQeIrG+dwPjKBhiQhzkyosBYTyS52SS3KQSkN5VwHJm/YZIfx5vGKVmTXyHDyO5Dl5NjhesKaQY6JWpiA4XrBJAyyVkzmtIoSpoSVCSVMkkUJqyflckQCtdpSRGY5gdnYlKmChBFcIzWUBJK9QKoQJQIwxIyAmqCIIJuNGAiamfkmc0ZGg00XCLyRJcaVseZ2BFxFoNY9E8bCe9YdFdtR8xgE3dyeMkTEnAwMUkbATuaUdWAIIBk6MmL8v13BWdUljICbjATZRgJqJkTIXBEAEyAjWZQjclyQBUOYuA2bpTB23Jax5P8E6vTXfiYYxxfHAMcO90OqCxB5Jmp4fDKqBPIIOMKGALBxA1/ZjIPPqSMTijhwfLRrvVBVJIzMZpG55nVnvIpzkcY5TlaTcmFEiWs148r5DZx7iDmCTUOkuF8x+cKkDZMkTOIUj1k0+jiPOW55bo43snA8Ds/LmHLN4JrDc7Z7ogWUMCWsTChhkixKWD2pShhv5gROBGdsj4x4Eawzs01QRZaF7Fijzxbqa6oiYay/YEwoRSo+RwgIygthph/xYe0ImS/WlBCEFWt9ECIyYATtlKrx8wICaySP4B2BK9aWsG01xwTlZ8y+U+5IcF1k14A1RwRmtbvhEbwxw87924GZsHfgOGA8Gp2LbMSAdFNORsaUDAjy1ghKFxtNsJD56F7+BpS+IWjFmAPXB8ScawfZFySN/yPgiDmTAErYroEIIzeMGyLEGHbfIInx5dzlut0dxrXIcHJfxoQsaTEZwpjXnvfdoRS1djdM4HsmaJiMYcKn+GgMrgXtRglTwsqEEibJooTVk6qEESgRrPPminQxqz516tRsVpQZ0uIzoihhaVdQ1S6qUo7Y25DRIsBnfMlw1G7YQdkbm2+8W/DW2yhh1aZKa8KqjBKmhJUJJUySRQmrJ1UJo3yJEjTWmRBssz6A8iJKWChzIfvC4m4yHkrYzimjhKWOElZtlLBqoIQpYWVCCZNkUcLqSVXCKIFhUTYL7pExStcQLkqPWGNCOSIbdLAIPzWUsGqghFUbJawaKGFKWJlQwiRZlLB6UpUwdtFjhzPW77AeiN33WM+BnLFNNeuOWGNCUNkb6wBaQQmrBkpYtVHCqoESpoSVCSVMkkUJqydFCWNxNyWINHbbY0vkYjtzhIyMGJs0sGCfRd5kyVJCCasGSli1UcKqgRKmhJUJJUySRQmrJ0UJY+crduOiDJHdEcmAAbuvUYLItsU0trSmZNFM2M5RwtqPElZtlLBqoIQpYWVCCZNkUcLqSbUcscwoYdVACas2Slg1UMKUsDKhhEmyKGH1KGHtRwmrBkpYtVHCqoESpoSVCSVMkkUJq0cJaz9KWDVQwqqNElYNlDAlrEwoYZIsSlg9Slj7UcKqgRJWbZSwaqCEKWFlQgmTZFHC6lHC2o8SVg2UsGqjhFUDJUwJKxNKmCSLElaPEtZ+lLBqoIRVGyWsGihhSliZUMIkWZSwepSw9qOEVQMlrNooYdVACVPCyoQSJsmihNUzbebsTMLWrluX90irnD/v4uwakZKE3fjNJdkb6t333p/3SKvce/+/Za/pDSWQsE9PnJJJ2ObNm/IeaZWzZp8Te+//iaQk7KoFi+N9H+wXK1auynukVZZ0SchvfOB3lTApBUqYJIsSVs9Zs8+NfQcM7rqQ/yLvkVY594J58aF9Doznnn8h7+l7vnnr0nj/7h+OO+68K++RVlnWFZRxfpNlTJ0JU2Z0SdiIeO311/MeaZXps+Zm187/e+XVvKfvWbj4+vit39krlj/4SN4jrUKm+zd/u19856578p6+RwmTZihhkixKWD0XfeGy2P+QI+LhFY/mPdIKb2zcGJNnzIqDDjsyfvbzF/Pevufu+x6Ij3x8YFxx5fy8R1rlH66an70XLF12Z96TLn963rwYePjR8cRTz+Q90gpr1qyNkydMiSFHj441a9fmvX3PktvviL32OzgWXXdD3iOtsGPHjrjki5fHHnvvH/cvfzDv7XuUMGmGEibJooTVwwl70ODhMWHqmfH0f34/tm3blv9EdpVXXl0Tl3/lqthv4JCYMuPsWLd+ff6Tvue/fvDDGD32lCxoJIOz0bVBPWbT5s1x5933xdBjjothI8fE4098L/9Juiy+/sbYf9DQOGPm7Pjv1c9mwaX0jJe7AuC/7grMyYLNmvO5pNbZcSweNXpsHHXs2Lj3geXZsSo9Y+PGN2PJ0mVx6LCRMfK4cdk1NBWUMGmGEibJooTVs2HDhi5hmBV7fWxAHN315s3akdMmT7ftYjt10rT41KcnZFnFAwcNiweWPxTbt2/PX+W+Z+vWrXHFlVfHnvscFIcOHxnjxp/e8O+w7bwR/Aw+clT2Wv79FVfGli1v5a9yurDxDptzfGS/gXFMV0B5ysSpDf8227s3zvMxJ52WTbQcMnRErHzsu0kJLcfiJZddHh/66EEx5Khjs2O10d9h23kbd+rpXWN8THx43wEx/5pr462ua2gqKGHSDCVMkkUJawxrGr5y1YI44TMTY/DwUVlmbMBhR9reY+P1otRrxCdPyBbr//vDj3QJWHqZhk2bNsfty74Tk6adFUcc88mGf4tt523oyOPi1MnT4ms33pS9pmXhxZdejr/78j/G8Sefls3ue57vWuP1YnOTkWPGxWfPOS9Wrno8f2XTggzOTbfcHhOmTI/DR4xu+LfYdt6GjRoTE7skh6A2tYkWJUyaoYRJsihhzSFrQ0DJmqYNb7wRb9jec3vn9dqYlSW99Vb6WZEtW7ZkgVqjv8W288Zrt3nzlvzVLBfbsvN8k+d5D9qvnOcJZUWasTk7zzfW/R2299ay87zrNUwRJUyaoYRJsihhIiIiUmaUMGmGEibJooSJiIhImVHCpBlKmCSLEiYiIiJlRgmTZihhkixKmIiIiJQZJUyaoYRJsihhIiIiUmaUMGmGEibJooSJiIhImVHCpBlKmCSLEiYiIiJlRgmTZihhkixKmIiIiJQZJUyaoYRJsihhIiIiUmaUMGmGEibJooSJiIhImVHCpBlKmCSLEiYiIiJlRgmTZihhkiydlrCrFiyO932wX/zHo6vyHhEREZGeg4SdfNrkmDj1zHjp5V/kve1FCSsnSpgkS6clbNG1N8QHfu/348FHVuQ9IiIiIj2H7Ndx48bHlBmz4pU1a/Le9qKElZNfewk7b97FmYQ997/P5z1SFq77+jcyCfvGLbflPb0LF7GPHjgorr/xprxHREREpOes/tGPY7+BQ2LO5y+It99+O+9tL4WELVl6R94jZeDmW5f+ekvYRX91afTrf0CsfvZHeY+UhfmLrs0k7PZld+Y9vcsPfvhsjD7hlBj+B8fHo6sej7Xr1sf69a/ZbDabzWaz7VJbt359vPDTn8V5F14ce+5zYCxYfF0ebbSfe+9fHrvvuU98/aZb8h4pA/9y862x2x7941/vuS/v6V06LmFXX3Nt7DtgcNx829K8R8rCn/zZX8Shw0fG955+Ju/pXXbs2BEL/vn6OPjwo+JjBx8Wg4YeE8NHjbHZbDabzWbbpXb40aNj/0FDo/8Bg+LsuZ/vtfVg8NQz349Dh42Kcy+YF29u2pT3Ssq8tXVrXPiXl2SZsBUrH8t7e5eOS9hj330yDh8xOsaMGx8Pr1gZP/mf5+L5F35qS7g9++OfZNL8iSNGxLjxp8frr2/IR7Mz3L/8wTjn/Atj0rSZMfGPzrTZbDabzWbbpfaHZ/xxzDh7bnz1nxbGq6/2zlqwAip3Zp97flb59Tdf/FIsf+jhLLC3pdmWP/RIXPq3X4q9DzgkJkyZET9/8aV8JHuXjkvYjq5/X/7q1Vk2rH/XH3vksZ/KFkged+JnbIm2IV3SvEf/j8eo40+KB7qEqC/ZunWrzWaz2Ww22y61bdu255FEZ3jyqafjjLM+m60/261f/3j/7nvaEm277bF3JmCnTZ4eTzz5VD6CvU/HJQxIzd76rWXx5xd9IWbN/VxMnzW7q82xJdnmxuxzzouLL7ksVj3+RD6CIiIiIvJurFv/Wnz7rnti0XU3xJXzF9kSbddc+7W47Vvf7tUS1Ub0iYQVbN++PSttW7N2rS3Zti7e2PhmPmIiIiIiItIqfSphIiIiIiIiVUMJExERERER6SBKmIiIiIiISAdRwkRERERERDqIEiYiIiIiItJBlDAREREREZEOooSJiIiIiIh0ECVMRERERESkgyhhIiIiIiIiHUQJExERERER6SBKmIiIiIiISAdRwkRERERERDqIEiYiIiIiItJBlDAREREREZEOooSJiIiIiIh0ECVMRERERESkgyhhIiIiIiIiHUQJExERERER6SBKmIiIiIiISAdRwkRERERERDqIEiYiIiIiItJBlDAREREREZEOooSJiIiIiIh0ECVMRERERESkgyhhIiIiIiIiHUQJExERERER6RgR/w/KxGkdUYBOJQAAAABJRU5ErkJggg==;" vertex="1" parent="1">
          <mxGeometry x="100" y="-380" width="865" height="479" as="geometry" />
        </mxCell>
        <mxCell id="lpsMPSB3YRS6aLVJ9S5I-2" value="访问主体" style="rounded=1;whiteSpace=wrap;html=1;" vertex="1" parent="1">
          <mxGeometry x="80" y="160" width="120" height="440" as="geometry" />
        </mxCell>
        <mxCell id="lpsMPSB3YRS6aLVJ9S5I-4" value="" style="rounded=0;whiteSpace=wrap;html=1;" vertex="1" parent="1">
          <mxGeometry x="240" y="160" width="600" height="440" as="geometry" />
        </mxCell>
        <mxCell id="lpsMPSB3YRS6aLVJ9S5I-5" value="访问主体" style="rounded=1;whiteSpace=wrap;html=1;" vertex="1" parent="1">
          <mxGeometry x="880" y="160" width="120" height="440" as="geometry" />
        </mxCell>
        <mxCell id="lpsMPSB3YRS6aLVJ9S5I-6" value="" style="endArrow=none;dashed=1;html=1;dashPattern=1 3;strokeWidth=2;rounded=0;entryX=1;entryY=0.5;entryDx=0;entryDy=0;exitX=0;exitY=0.5;exitDx=0;exitDy=0;" edge="1" parent="1" source="lpsMPSB3YRS6aLVJ9S5I-4" target="lpsMPSB3YRS6aLVJ9S5I-4">
          <mxGeometry width="50" height="50" relative="1" as="geometry">
            <mxPoint x="240" y="360" as="sourcePoint" />
            <mxPoint x="290" y="310" as="targetPoint" />
          </mxGeometry>
        </mxCell>
        <mxCell id="lpsMPSB3YRS6aLVJ9S5I-7" value="" style="rounded=1;whiteSpace=wrap;html=1;dashed=1;" vertex="1" parent="1">
          <mxGeometry x="298.75" y="190" width="482.5" height="170" as="geometry" />
        </mxCell>
        <mxCell id="lpsMPSB3YRS6aLVJ9S5I-8" value="" style="rounded=1;whiteSpace=wrap;html=1;dashed=1;" vertex="1" parent="1">
          <mxGeometry x="298.75" y="400" width="481.25" height="130" as="geometry" />
        </mxCell>
        <mxCell id="lpsMPSB3YRS6aLVJ9S5I-9" value="DIFC数据流控制服务" style="rounded=0;whiteSpace=wrap;html=1;" vertex="1" parent="1">
          <mxGeometry x="330" y="220" width="140" height="60" as="geometry" />
        </mxCell>
        <mxCell id="lpsMPSB3YRS6aLVJ9S5I-11" value="DIFC传输校验" style="rounded=0;whiteSpace=wrap;html=1;" vertex="1" parent="1">
          <mxGeometry x="481.88" y="220" width="101.25" height="60" as="geometry" />
        </mxCell>
        <mxCell id="lpsMPSB3YRS6aLVJ9S5I-12" value="DIFC标签计算" style="rounded=0;whiteSpace=wrap;html=1;" vertex="1" parent="1">
          <mxGeometry x="600" y="220" width="160" height="60" as="geometry" />
        </mxCell>
        <mxCell id="lpsMPSB3YRS6aLVJ9S5I-13" value="策略决策结果" style="rounded=0;whiteSpace=wrap;html=1;" vertex="1" parent="1">
          <mxGeometry x="330" y="290" width="430" height="60" as="geometry" />
        </mxCell>
        <mxCell id="lpsMPSB3YRS6aLVJ9S5I-14" value="策略执行点" style="text;html=1;strokeColor=none;fillColor=none;align=center;verticalAlign=middle;whiteSpace=wrap;rounded=0;" vertex="1" parent="1">
          <mxGeometry x="494" y="190" width="77" height="30" as="geometry" />
        </mxCell>
        <mxCell id="lpsMPSB3YRS6aLVJ9S5I-15" value="PBAC策略管理器" style="rounded=0;whiteSpace=wrap;html=1;" vertex="1" parent="1">
          <mxGeometry x="330" y="410" width="430" height="40" as="geometry" />
        </mxCell>
        <mxCell id="lpsMPSB3YRS6aLVJ9S5I-16" value="PBAC策略信息库" style="rounded=0;whiteSpace=wrap;html=1;" vertex="1" parent="1">
          <mxGeometry x="330" y="460" width="210" height="40" as="geometry" />
        </mxCell>
        <mxCell id="lpsMPSB3YRS6aLVJ9S5I-17" value="信任评估引擎" style="rounded=0;whiteSpace=wrap;html=1;" vertex="1" parent="1">
          <mxGeometry x="550" y="460" width="210" height="40" as="geometry" />
        </mxCell>
        <mxCell id="lpsMPSB3YRS6aLVJ9S5I-21" value="策略决策点" style="text;html=1;strokeColor=none;fillColor=none;align=center;verticalAlign=middle;whiteSpace=wrap;rounded=0;" vertex="1" parent="1">
          <mxGeometry x="501.5" y="500" width="77" height="30" as="geometry" />
        </mxCell>
      </root>
    </mxGraphModel>
  </diagram>
</mxfile>
